G04 #@! TF.GenerationSoftware,KiCad,Pcbnew,(5.1.6-0-10_14)*
G04 #@! TF.CreationDate,2020-09-10T16:37:37+09:00*
G04 #@! TF.ProjectId,zrzr,7a727a72-2e6b-4696-9361-645f70636258,rev?*
G04 #@! TF.SameCoordinates,PX1ab3f00PY7fcad80*
G04 #@! TF.FileFunction,Profile,NP*
%FSLAX46Y46*%
G04 Gerber Fmt 4.6, Leading zero omitted, Abs format (unit mm)*
G04 Created by KiCad (PCBNEW (5.1.6-0-10_14)) date 2020-09-10 16:37:37*
%MOMM*%
%LPD*%
G01*
G04 APERTURE LIST*
G04 #@! TA.AperFunction,Profile*
%ADD10C,0.050000*%
G04 #@! TD*
G04 APERTURE END LIST*
D10*
X242490000Y58940000D02*
X239990000Y58940000D01*
X239990000Y59940000D02*
X242490000Y59940000D01*
X237050000Y63410000D02*
X237050000Y61410000D01*
X236050000Y63410000D02*
G75*
G02*
X237050000Y63410000I500000J0D01*
G01*
X236050000Y61410000D02*
X236050000Y63410000D01*
X237050000Y61410000D02*
G75*
G02*
X236050000Y61410000I-500000J0D01*
G01*
X242490000Y59940000D02*
G75*
G02*
X242490000Y58940000I0J-500000D01*
G01*
X239990000Y58940000D02*
G75*
G02*
X239990000Y59940000I0J500000D01*
G01*
X242220000Y64910000D02*
X240220000Y64910000D01*
X240220000Y65910000D02*
X242220000Y65910000D01*
X242220000Y65910000D02*
G75*
G02*
X242220000Y64910000I0J-500000D01*
G01*
X240220000Y64910000D02*
G75*
G02*
X240220000Y65910000I0J500000D01*
G01*
X0Y70000000D02*
G75*
G02*
X4000000Y74000000I4000000J0D01*
G01*
X4000000Y0D02*
G75*
G02*
X0Y4000000I0J4000000D01*
G01*
X256000000Y4000000D02*
G75*
G02*
X252000000Y0I-4000000J0D01*
G01*
X252000000Y74000000D02*
G75*
G02*
X256000000Y70000000I0J-4000000D01*
G01*
X256000000Y70000000D02*
X256000000Y4000000D01*
X4000000Y74000000D02*
X252000000Y74000000D01*
X0Y4000000D02*
X0Y70000000D01*
X252000000Y0D02*
X4000000Y0D01*
M02*
