G04 #@! TF.GenerationSoftware,KiCad,Pcbnew,(5.1.6-0-10_14)*
G04 #@! TF.CreationDate,2020-09-10T16:37:37+09:00*
G04 #@! TF.ProjectId,zrzr,7a727a72-2e6b-4696-9361-645f70636258,rev?*
G04 #@! TF.SameCoordinates,PX1ab3f00PY7fcad80*
G04 #@! TF.FileFunction,Soldermask,Bot*
G04 #@! TF.FilePolarity,Negative*
%FSLAX46Y46*%
G04 Gerber Fmt 4.6, Leading zero omitted, Abs format (unit mm)*
G04 Created by KiCad (PCBNEW (5.1.6-0-10_14)) date 2020-09-10 16:37:37*
%MOMM*%
%LPD*%
G01*
G04 APERTURE LIST*
%ADD10R,4.200000X3.700000*%
%ADD11C,2.200000*%
%ADD12C,3.400000*%
G04 APERTURE END LIST*
D10*
X241240000Y59420000D03*
G36*
G01*
X240190000Y67020000D02*
X242290000Y67020000D01*
G75*
G02*
X243090000Y66220000I0J-800000D01*
G01*
X243090000Y64620000D01*
G75*
G02*
X242290000Y63820000I-800000J0D01*
G01*
X240190000Y63820000D01*
G75*
G02*
X239390000Y64620000I0J800000D01*
G01*
X239390000Y66220000D01*
G75*
G02*
X240190000Y67020000I800000J0D01*
G01*
G37*
G36*
G01*
X235615000Y64270000D02*
X237465000Y64270000D01*
G75*
G02*
X238390000Y63345000I0J-925000D01*
G01*
X238390000Y61495000D01*
G75*
G02*
X237465000Y60570000I-925000J0D01*
G01*
X235615000Y60570000D01*
G75*
G02*
X234690000Y61495000I0J925000D01*
G01*
X234690000Y63345000D01*
G75*
G02*
X235615000Y64270000I925000J0D01*
G01*
G37*
D11*
X114240000Y19700000D03*
X114240000Y22240000D03*
X114240000Y24780000D03*
X114240000Y27320000D03*
X114240000Y29860000D03*
X114240000Y32400000D03*
X114240000Y34940000D03*
X114240000Y37480000D03*
X114240000Y40020000D03*
X114240000Y42560000D03*
X114240000Y45100000D03*
X114240000Y47640000D03*
X114240000Y50180000D03*
X114240000Y52720000D03*
X114240000Y55260000D03*
X114240000Y57800000D03*
X226000000Y19700000D03*
X226000000Y22240000D03*
X226000000Y24780000D03*
X226000000Y27320000D03*
X226000000Y29860000D03*
X226000000Y32400000D03*
X226000000Y34940000D03*
X226000000Y37480000D03*
X226000000Y40020000D03*
X226000000Y42560000D03*
X226000000Y45100000D03*
X226000000Y47640000D03*
X226000000Y50180000D03*
X226000000Y52720000D03*
X226000000Y55260000D03*
X226000000Y57800000D03*
X198060000Y19700000D03*
X198060000Y22240000D03*
X198060000Y24780000D03*
X198060000Y27320000D03*
X198060000Y29860000D03*
X198060000Y32400000D03*
X198060000Y34940000D03*
X198060000Y37480000D03*
X198060000Y40020000D03*
X198060000Y42560000D03*
X198060000Y45100000D03*
X198060000Y47640000D03*
X198060000Y50180000D03*
X198060000Y52720000D03*
X198060000Y55260000D03*
X198060000Y57800000D03*
X170120000Y19700000D03*
X170120000Y22240000D03*
X170120000Y24780000D03*
X170120000Y27320000D03*
X170120000Y29860000D03*
X170120000Y32400000D03*
X170120000Y34940000D03*
X170120000Y37480000D03*
X170120000Y40020000D03*
X170120000Y42560000D03*
X170120000Y45100000D03*
X170120000Y47640000D03*
X170120000Y50180000D03*
X170120000Y52720000D03*
X170120000Y55260000D03*
X170120000Y57800000D03*
X142180000Y19700000D03*
X142180000Y22240000D03*
X142180000Y24780000D03*
X142180000Y27320000D03*
X142180000Y29860000D03*
X142180000Y32400000D03*
X142180000Y34940000D03*
X142180000Y37480000D03*
X142180000Y40020000D03*
X142180000Y42560000D03*
X142180000Y45100000D03*
X142180000Y47640000D03*
X142180000Y50180000D03*
X142180000Y52720000D03*
X142180000Y55260000D03*
X142180000Y57800000D03*
X86300000Y19700000D03*
X86300000Y22240000D03*
X86300000Y24780000D03*
X86300000Y27320000D03*
X86300000Y29860000D03*
X86300000Y32400000D03*
X86300000Y34940000D03*
X86300000Y37480000D03*
X86300000Y40020000D03*
X86300000Y42560000D03*
X86300000Y45100000D03*
X86300000Y47640000D03*
X86300000Y50180000D03*
X86300000Y52720000D03*
X86300000Y55260000D03*
X86300000Y57800000D03*
X58360000Y19700000D03*
X58360000Y22240000D03*
X58360000Y24780000D03*
X58360000Y27320000D03*
X58360000Y29860000D03*
X58360000Y32400000D03*
X58360000Y34940000D03*
X58360000Y37480000D03*
X58360000Y40020000D03*
X58360000Y42560000D03*
X58360000Y45100000D03*
X58360000Y47640000D03*
X58360000Y50180000D03*
X58360000Y52720000D03*
X58360000Y55260000D03*
X58360000Y57800000D03*
X30420000Y19700000D03*
X30420000Y22240000D03*
X30420000Y24780000D03*
X30420000Y27320000D03*
X30420000Y29860000D03*
X30420000Y32400000D03*
X30420000Y34940000D03*
X30420000Y37480000D03*
X30420000Y40020000D03*
X30420000Y42560000D03*
X30420000Y45100000D03*
X30420000Y47640000D03*
X30420000Y50180000D03*
X30420000Y52720000D03*
X30420000Y55260000D03*
X30420000Y57800000D03*
X129480000Y9540000D03*
X132020000Y9540000D03*
X134560000Y9540000D03*
X213300000Y9540000D03*
X215840000Y9540000D03*
X218380000Y9540000D03*
X185360000Y9540000D03*
X187900000Y9540000D03*
X190440000Y9540000D03*
X157420000Y9540000D03*
X159960000Y9540000D03*
X162500000Y9540000D03*
X101540000Y9540000D03*
X104080000Y9540000D03*
X106620000Y9540000D03*
X73600000Y9540000D03*
X76140000Y9540000D03*
X78680000Y9540000D03*
X45660000Y9540000D03*
X48200000Y9540000D03*
X50740000Y9540000D03*
X17720000Y9540000D03*
X20260000Y9540000D03*
X22800000Y9540000D03*
X149800000Y29860000D03*
X149800000Y32400000D03*
X149800000Y34940000D03*
X149800000Y37480000D03*
X149800000Y40020000D03*
X149800000Y42560000D03*
X149800000Y45100000D03*
X149800000Y47640000D03*
X149800000Y50180000D03*
X149800000Y52720000D03*
X149800000Y55260000D03*
X149800000Y57800000D03*
X121860000Y29860000D03*
X121860000Y32400000D03*
X121860000Y34940000D03*
X121860000Y37480000D03*
X121860000Y40020000D03*
X121860000Y42560000D03*
X121860000Y45100000D03*
X121860000Y47640000D03*
X121860000Y50180000D03*
X121860000Y52720000D03*
X121860000Y55260000D03*
X121860000Y57800000D03*
X205680000Y29860000D03*
X205680000Y32400000D03*
X205680000Y34940000D03*
X205680000Y37480000D03*
X205680000Y40020000D03*
X205680000Y42560000D03*
X205680000Y45100000D03*
X205680000Y47640000D03*
X205680000Y50180000D03*
X205680000Y52720000D03*
X205680000Y55260000D03*
X205680000Y57800000D03*
X177740000Y29860000D03*
X177740000Y32400000D03*
X177740000Y34940000D03*
X177740000Y37480000D03*
X177740000Y40020000D03*
X177740000Y42560000D03*
X177740000Y45100000D03*
X177740000Y47640000D03*
X177740000Y50180000D03*
X177740000Y52720000D03*
X177740000Y55260000D03*
X177740000Y57800000D03*
X93920000Y29860000D03*
X93920000Y32400000D03*
X93920000Y34940000D03*
X93920000Y37480000D03*
X93920000Y40020000D03*
X93920000Y42560000D03*
X93920000Y45100000D03*
X93920000Y47640000D03*
X93920000Y50180000D03*
X93920000Y52720000D03*
X93920000Y55260000D03*
X93920000Y57800000D03*
X65980000Y29860000D03*
X65980000Y32400000D03*
X65980000Y34940000D03*
X65980000Y37480000D03*
X65980000Y40020000D03*
X65980000Y42560000D03*
X65980000Y45100000D03*
X65980000Y47640000D03*
X65980000Y50180000D03*
X65980000Y52720000D03*
X65980000Y55260000D03*
X65980000Y57800000D03*
X38040000Y29860000D03*
X38040000Y32400000D03*
X38040000Y34940000D03*
X38040000Y37480000D03*
X38040000Y40020000D03*
X38040000Y42560000D03*
X38040000Y45100000D03*
X38040000Y47640000D03*
X38040000Y50180000D03*
X38040000Y52720000D03*
X38040000Y55260000D03*
X38040000Y57800000D03*
X10100000Y29860000D03*
X10100000Y32400000D03*
X10100000Y34940000D03*
X10100000Y37480000D03*
X10100000Y40020000D03*
X10100000Y42560000D03*
X10100000Y45100000D03*
X10100000Y47640000D03*
X10100000Y50180000D03*
X10100000Y52720000D03*
X10100000Y55260000D03*
X10100000Y57800000D03*
D12*
X4000000Y70000000D03*
X4000000Y4000000D03*
X252000000Y4000000D03*
X252000000Y70000000D03*
M02*
