M48
; DRILL file {KiCad (5.1.6-0-10_14)} date Thursday, September 10, 2020 at 04:37:30 PM
; FORMAT={-:-/ absolute / metric / decimal}
; #@! TF.CreationDate,2020-09-10T16:37:30+09:00
; #@! TF.GenerationSoftware,Kicad,Pcbnew,(5.1.6-0-10_14)
FMAT,2
METRIC
T1C1.000
T2C3.200
%
G90
G05
T1
X93.92Y57.8
X93.92Y55.26
X93.92Y52.72
X93.92Y50.18
X93.92Y47.64
X93.92Y45.1
X93.92Y42.56
X93.92Y40.02
X93.92Y37.48
X93.92Y34.94
X93.92Y32.4
X93.92Y29.86
X185.36Y9.54
X187.9Y9.54
X190.44Y9.54
X114.24Y57.8
X114.24Y55.26
X114.24Y52.72
X114.24Y50.18
X114.24Y47.64
X114.24Y45.1
X114.24Y42.56
X114.24Y40.02
X114.24Y37.48
X114.24Y34.94
X114.24Y32.4
X114.24Y29.86
X114.24Y27.32
X114.24Y24.78
X114.24Y22.24
X114.24Y19.7
X213.3Y9.54
X215.84Y9.54
X218.38Y9.54
X86.3Y57.8
X86.3Y55.26
X86.3Y52.72
X86.3Y50.18
X86.3Y47.64
X86.3Y45.1
X86.3Y42.56
X86.3Y40.02
X86.3Y37.48
X86.3Y34.94
X86.3Y32.4
X86.3Y29.86
X86.3Y27.32
X86.3Y24.78
X86.3Y22.24
X86.3Y19.7
X121.86Y57.8
X121.86Y55.26
X121.86Y52.72
X121.86Y50.18
X121.86Y47.64
X121.86Y45.1
X121.86Y42.56
X121.86Y40.02
X121.86Y37.48
X121.86Y34.94
X121.86Y32.4
X121.86Y29.86
X17.72Y9.54
X20.26Y9.54
X22.8Y9.54
X198.06Y57.8
X198.06Y55.26
X198.06Y52.72
X198.06Y50.18
X198.06Y47.64
X198.06Y45.1
X198.06Y42.56
X198.06Y40.02
X198.06Y37.48
X198.06Y34.94
X198.06Y32.4
X198.06Y29.86
X198.06Y27.32
X198.06Y24.78
X198.06Y22.24
X198.06Y19.7
X10.1Y57.8
X10.1Y55.26
X10.1Y52.72
X10.1Y50.18
X10.1Y47.64
X10.1Y45.1
X10.1Y42.56
X10.1Y40.02
X10.1Y37.48
X10.1Y34.94
X10.1Y32.4
X10.1Y29.86
X45.66Y9.54
X48.2Y9.54
X50.74Y9.54
X129.48Y9.54
X132.02Y9.54
X134.56Y9.54
X30.42Y57.8
X30.42Y55.26
X30.42Y52.72
X30.42Y50.18
X30.42Y47.64
X30.42Y45.1
X30.42Y42.56
X30.42Y40.02
X30.42Y37.48
X30.42Y34.94
X30.42Y32.4
X30.42Y29.86
X30.42Y27.32
X30.42Y24.78
X30.42Y22.24
X30.42Y19.7
X142.18Y57.8
X142.18Y55.26
X142.18Y52.72
X142.18Y50.18
X142.18Y47.64
X142.18Y45.1
X142.18Y42.56
X142.18Y40.02
X142.18Y37.48
X142.18Y34.94
X142.18Y32.4
X142.18Y29.86
X142.18Y27.32
X142.18Y24.78
X142.18Y22.24
X142.18Y19.7
X65.98Y57.8
X65.98Y55.26
X65.98Y52.72
X65.98Y50.18
X65.98Y47.64
X65.98Y45.1
X65.98Y42.56
X65.98Y40.02
X65.98Y37.48
X65.98Y34.94
X65.98Y32.4
X65.98Y29.86
X205.68Y57.8
X205.68Y55.26
X205.68Y52.72
X205.68Y50.18
X205.68Y47.64
X205.68Y45.1
X205.68Y42.56
X205.68Y40.02
X205.68Y37.48
X205.68Y34.94
X205.68Y32.4
X205.68Y29.86
X101.54Y9.54
X104.08Y9.54
X106.62Y9.54
X58.36Y57.8
X58.36Y55.26
X58.36Y52.72
X58.36Y50.18
X58.36Y47.64
X58.36Y45.1
X58.36Y42.56
X58.36Y40.02
X58.36Y37.48
X58.36Y34.94
X58.36Y32.4
X58.36Y29.86
X58.36Y27.32
X58.36Y24.78
X58.36Y22.24
X58.36Y19.7
X157.42Y9.54
X159.96Y9.54
X162.5Y9.54
X73.6Y9.54
X76.14Y9.54
X78.68Y9.54
X38.04Y57.8
X38.04Y55.26
X38.04Y52.72
X38.04Y50.18
X38.04Y47.64
X38.04Y45.1
X38.04Y42.56
X38.04Y40.02
X38.04Y37.48
X38.04Y34.94
X38.04Y32.4
X38.04Y29.86
X226.0Y57.8
X226.0Y55.26
X226.0Y52.72
X226.0Y50.18
X226.0Y47.64
X226.0Y45.1
X226.0Y42.56
X226.0Y40.02
X226.0Y37.48
X226.0Y34.94
X226.0Y32.4
X226.0Y29.86
X226.0Y27.32
X226.0Y24.78
X226.0Y22.24
X226.0Y19.7
X170.12Y57.8
X170.12Y55.26
X170.12Y52.72
X170.12Y50.18
X170.12Y47.64
X170.12Y45.1
X170.12Y42.56
X170.12Y40.02
X170.12Y37.48
X170.12Y34.94
X170.12Y32.4
X170.12Y29.86
X170.12Y27.32
X170.12Y24.78
X170.12Y22.24
X170.12Y19.7
X149.8Y57.8
X149.8Y55.26
X149.8Y52.72
X149.8Y50.18
X149.8Y47.64
X149.8Y45.1
X149.8Y42.56
X149.8Y40.02
X149.8Y37.48
X149.8Y34.94
X149.8Y32.4
X149.8Y29.86
X177.74Y57.8
X177.74Y55.26
X177.74Y52.72
X177.74Y50.18
X177.74Y47.64
X177.74Y45.1
X177.74Y42.56
X177.74Y40.02
X177.74Y37.48
X177.74Y34.94
X177.74Y32.4
X177.74Y29.86
T2
X4.0Y70.0
X4.0Y4.0
X252.0Y70.0
X252.0Y4.0
T1
G00X236.54Y63.42
M15
G01X236.54Y61.42
M16
G05
G00X242.24Y65.42
M15
G01X240.24Y65.42
M16
G05
G00X242.49Y59.42
M15
G01X239.99Y59.42
M16
G05
T0
M30
