G04 #@! TF.GenerationSoftware,KiCad,Pcbnew,(5.1.6-0-10_14)*
G04 #@! TF.CreationDate,2020-09-10T16:37:37+09:00*
G04 #@! TF.ProjectId,zrzr,7a727a72-2e6b-4696-9361-645f70636258,rev?*
G04 #@! TF.SameCoordinates,PX1ab3f00PY7fcad80*
G04 #@! TF.FileFunction,Legend,Top*
G04 #@! TF.FilePolarity,Positive*
%FSLAX46Y46*%
G04 Gerber Fmt 4.6, Leading zero omitted, Abs format (unit mm)*
G04 Created by KiCad (PCBNEW (5.1.6-0-10_14)) date 2020-09-10 16:37:37*
%MOMM*%
%LPD*%
G01*
G04 APERTURE LIST*
%ADD10C,0.150000*%
%ADD11C,0.120000*%
%ADD12C,0.010000*%
%ADD13R,4.200000X3.700000*%
%ADD14C,2.200000*%
%ADD15C,3.400000*%
G04 APERTURE END LIST*
D10*
X250571428Y36238096D02*
X250571428Y37285715D01*
X251904761Y36238096D01*
X251904761Y37285715D01*
X251904761Y38047620D02*
X250571428Y38047620D01*
X250952380Y38047620D02*
X250761904Y38142858D01*
X250666666Y38238096D01*
X250571428Y38428572D01*
X250571428Y38619048D01*
X250571428Y39095239D02*
X250571428Y40142858D01*
X251904761Y39095239D01*
X251904761Y40142858D01*
X251904761Y40904762D02*
X250571428Y40904762D01*
X250952380Y40904762D02*
X250761904Y41000000D01*
X250666666Y41095239D01*
X250571428Y41285715D01*
X250571428Y41476191D01*
X251142857Y42142858D02*
X251142857Y43666667D01*
X250571428Y44619048D02*
X252571428Y44619048D01*
X250666666Y44619048D02*
X250571428Y44809524D01*
X250571428Y45190477D01*
X250666666Y45380953D01*
X250761904Y45476191D01*
X250952380Y45571429D01*
X251523809Y45571429D01*
X251714285Y45476191D01*
X251809523Y45380953D01*
X251904761Y45190477D01*
X251904761Y44809524D01*
X251809523Y44619048D01*
X250571428Y46238096D02*
X251904761Y46619048D01*
X250952380Y47000000D01*
X251904761Y47380953D01*
X250571428Y47761905D01*
X251904761Y48523810D02*
X250571428Y48523810D01*
X250952380Y48523810D02*
X250761904Y48619048D01*
X250666666Y48714286D01*
X250571428Y48904762D01*
X250571428Y49095239D01*
X251904761Y49761905D02*
X249904761Y49761905D01*
X250666666Y49761905D02*
X250571428Y49952381D01*
X250571428Y50333334D01*
X250666666Y50523810D01*
X250761904Y50619048D01*
X250952380Y50714286D01*
X251523809Y50714286D01*
X251714285Y50619048D01*
X251809523Y50523810D01*
X251904761Y50333334D01*
X251904761Y49952381D01*
X251809523Y49761905D01*
X251904761Y51571429D02*
X250571428Y51571429D01*
X250952380Y51571429D02*
X250761904Y51666667D01*
X250666666Y51761905D01*
X250571428Y51952381D01*
X250571428Y52142858D01*
X251904761Y53666667D02*
X249904761Y53666667D01*
X251809523Y53666667D02*
X251904761Y53476191D01*
X251904761Y53095239D01*
X251809523Y52904762D01*
X251714285Y52809524D01*
X251523809Y52714286D01*
X250952380Y52714286D01*
X250761904Y52809524D01*
X250666666Y52904762D01*
X250571428Y53095239D01*
X250571428Y53476191D01*
X250666666Y53666667D01*
X251904761Y56142858D02*
X250571428Y56142858D01*
X250952380Y56142858D02*
X250761904Y56238096D01*
X250666666Y56333334D01*
X250571428Y56523810D01*
X250571428Y56714286D01*
X251809523Y58142858D02*
X251904761Y57952381D01*
X251904761Y57571429D01*
X251809523Y57380953D01*
X251619047Y57285715D01*
X250857142Y57285715D01*
X250666666Y57380953D01*
X250571428Y57571429D01*
X250571428Y57952381D01*
X250666666Y58142858D01*
X250857142Y58238096D01*
X251047619Y58238096D01*
X251238095Y57285715D01*
X250571428Y58904762D02*
X251904761Y59380953D01*
X250571428Y59857143D01*
X251904761Y61666667D02*
X251904761Y60523810D01*
X251904761Y61095239D02*
X249904761Y61095239D01*
X250190476Y60904762D01*
X250380952Y60714286D01*
X250476190Y60523810D01*
D11*
X244990000Y58320000D02*
X246040000Y58320000D01*
X246040000Y59370000D02*
X246040000Y58320000D01*
X236640000Y64420000D02*
X236640000Y73220000D01*
X236640000Y73220000D02*
X245840000Y73220000D01*
X239340000Y58520000D02*
X236640000Y58520000D01*
X236640000Y58520000D02*
X236640000Y60420000D01*
X245840000Y73220000D02*
X245840000Y58520000D01*
X245840000Y58520000D02*
X243240000Y58520000D01*
X112910000Y56530000D02*
X115570000Y56530000D01*
X112910000Y56530000D02*
X112910000Y18370000D01*
X112910000Y18370000D02*
X115570000Y18370000D01*
X115570000Y56530000D02*
X115570000Y18370000D01*
X115570000Y59130000D02*
X115570000Y57800000D01*
X114240000Y59130000D02*
X115570000Y59130000D01*
X224670000Y56530000D02*
X227330000Y56530000D01*
X224670000Y56530000D02*
X224670000Y18370000D01*
X224670000Y18370000D02*
X227330000Y18370000D01*
X227330000Y56530000D02*
X227330000Y18370000D01*
X227330000Y59130000D02*
X227330000Y57800000D01*
X226000000Y59130000D02*
X227330000Y59130000D01*
X196730000Y56530000D02*
X199390000Y56530000D01*
X196730000Y56530000D02*
X196730000Y18370000D01*
X196730000Y18370000D02*
X199390000Y18370000D01*
X199390000Y56530000D02*
X199390000Y18370000D01*
X199390000Y59130000D02*
X199390000Y57800000D01*
X198060000Y59130000D02*
X199390000Y59130000D01*
X168790000Y56530000D02*
X171450000Y56530000D01*
X168790000Y56530000D02*
X168790000Y18370000D01*
X168790000Y18370000D02*
X171450000Y18370000D01*
X171450000Y56530000D02*
X171450000Y18370000D01*
X171450000Y59130000D02*
X171450000Y57800000D01*
X170120000Y59130000D02*
X171450000Y59130000D01*
X140850000Y56530000D02*
X143510000Y56530000D01*
X140850000Y56530000D02*
X140850000Y18370000D01*
X140850000Y18370000D02*
X143510000Y18370000D01*
X143510000Y56530000D02*
X143510000Y18370000D01*
X143510000Y59130000D02*
X143510000Y57800000D01*
X142180000Y59130000D02*
X143510000Y59130000D01*
X84970000Y56530000D02*
X87630000Y56530000D01*
X84970000Y56530000D02*
X84970000Y18370000D01*
X84970000Y18370000D02*
X87630000Y18370000D01*
X87630000Y56530000D02*
X87630000Y18370000D01*
X87630000Y59130000D02*
X87630000Y57800000D01*
X86300000Y59130000D02*
X87630000Y59130000D01*
X57030000Y56530000D02*
X59690000Y56530000D01*
X57030000Y56530000D02*
X57030000Y18370000D01*
X57030000Y18370000D02*
X59690000Y18370000D01*
X59690000Y56530000D02*
X59690000Y18370000D01*
X59690000Y59130000D02*
X59690000Y57800000D01*
X58360000Y59130000D02*
X59690000Y59130000D01*
X29090000Y56530000D02*
X31750000Y56530000D01*
X29090000Y56530000D02*
X29090000Y18370000D01*
X29090000Y18370000D02*
X31750000Y18370000D01*
X31750000Y56530000D02*
X31750000Y18370000D01*
X31750000Y59130000D02*
X31750000Y57800000D01*
X30420000Y59130000D02*
X31750000Y59130000D01*
D12*
G36*
X249297020Y19769230D02*
G01*
X249308105Y19898771D01*
X249328592Y20010746D01*
X249361614Y20117712D01*
X249410305Y20232229D01*
X249415073Y20242307D01*
X249475505Y20369230D01*
X249353846Y20369230D01*
X249353846Y20907692D01*
X251615384Y20907692D01*
X251615384Y20369230D01*
X251552564Y20369230D01*
X251515145Y20366767D01*
X251496196Y20360585D01*
X251495670Y20357692D01*
X251544771Y20257357D01*
X251587607Y20160694D01*
X251620719Y20075858D01*
X251637588Y20023076D01*
X251655095Y19933579D01*
X251666094Y19824834D01*
X251670274Y19707730D01*
X251667324Y19593160D01*
X251656932Y19492012D01*
X251653361Y19471286D01*
X251605042Y19295927D01*
X251529717Y19130248D01*
X251430152Y18977981D01*
X251309110Y18842856D01*
X251169356Y18728603D01*
X251049569Y18656597D01*
X250873401Y18580128D01*
X250697577Y18533348D01*
X250518053Y18515491D01*
X250455999Y18518504D01*
X250455999Y19049000D01*
X250593748Y19055831D01*
X250721959Y19087385D01*
X250838292Y19141160D01*
X250940405Y19214656D01*
X251025959Y19305373D01*
X251092613Y19410808D01*
X251138026Y19528462D01*
X251159857Y19655834D01*
X251155766Y19790422D01*
X251123412Y19929726D01*
X251121512Y19935315D01*
X251085500Y20023931D01*
X251041432Y20096141D01*
X250980903Y20164826D01*
X250956141Y20188672D01*
X250865862Y20261128D01*
X250769065Y20312534D01*
X250666467Y20346227D01*
X250522914Y20368767D01*
X250381142Y20362635D01*
X250245312Y20328990D01*
X250119586Y20268991D01*
X250008124Y20183795D01*
X249979442Y20154948D01*
X249897807Y20046422D01*
X249841873Y19925963D01*
X249811513Y19798074D01*
X249806601Y19667259D01*
X249827013Y19538021D01*
X249872622Y19414864D01*
X249943303Y19302292D01*
X250005137Y19234546D01*
X250092275Y19162128D01*
X250181018Y19111601D01*
X250284014Y19076137D01*
X250311054Y19069392D01*
X250455999Y19049000D01*
X250455999Y18518504D01*
X250347835Y18523757D01*
X250160893Y18558383D01*
X249990084Y18618702D01*
X249832891Y18705937D01*
X249686796Y18821308D01*
X249638461Y18867911D01*
X249512322Y19014363D01*
X249415409Y19169744D01*
X249347221Y19335372D01*
X249307257Y19512569D01*
X249295018Y19702656D01*
X249297020Y19769230D01*
G37*
X249297020Y19769230D02*
X249308105Y19898771D01*
X249328592Y20010746D01*
X249361614Y20117712D01*
X249410305Y20232229D01*
X249415073Y20242307D01*
X249475505Y20369230D01*
X249353846Y20369230D01*
X249353846Y20907692D01*
X251615384Y20907692D01*
X251615384Y20369230D01*
X251552564Y20369230D01*
X251515145Y20366767D01*
X251496196Y20360585D01*
X251495670Y20357692D01*
X251544771Y20257357D01*
X251587607Y20160694D01*
X251620719Y20075858D01*
X251637588Y20023076D01*
X251655095Y19933579D01*
X251666094Y19824834D01*
X251670274Y19707730D01*
X251667324Y19593160D01*
X251656932Y19492012D01*
X251653361Y19471286D01*
X251605042Y19295927D01*
X251529717Y19130248D01*
X251430152Y18977981D01*
X251309110Y18842856D01*
X251169356Y18728603D01*
X251049569Y18656597D01*
X250873401Y18580128D01*
X250697577Y18533348D01*
X250518053Y18515491D01*
X250455999Y18518504D01*
X250455999Y19049000D01*
X250593748Y19055831D01*
X250721959Y19087385D01*
X250838292Y19141160D01*
X250940405Y19214656D01*
X251025959Y19305373D01*
X251092613Y19410808D01*
X251138026Y19528462D01*
X251159857Y19655834D01*
X251155766Y19790422D01*
X251123412Y19929726D01*
X251121512Y19935315D01*
X251085500Y20023931D01*
X251041432Y20096141D01*
X250980903Y20164826D01*
X250956141Y20188672D01*
X250865862Y20261128D01*
X250769065Y20312534D01*
X250666467Y20346227D01*
X250522914Y20368767D01*
X250381142Y20362635D01*
X250245312Y20328990D01*
X250119586Y20268991D01*
X250008124Y20183795D01*
X249979442Y20154948D01*
X249897807Y20046422D01*
X249841873Y19925963D01*
X249811513Y19798074D01*
X249806601Y19667259D01*
X249827013Y19538021D01*
X249872622Y19414864D01*
X249943303Y19302292D01*
X250005137Y19234546D01*
X250092275Y19162128D01*
X250181018Y19111601D01*
X250284014Y19076137D01*
X250311054Y19069392D01*
X250455999Y19049000D01*
X250455999Y18518504D01*
X250347835Y18523757D01*
X250160893Y18558383D01*
X249990084Y18618702D01*
X249832891Y18705937D01*
X249686796Y18821308D01*
X249638461Y18867911D01*
X249512322Y19014363D01*
X249415409Y19169744D01*
X249347221Y19335372D01*
X249307257Y19512569D01*
X249295018Y19702656D01*
X249297020Y19769230D01*
G36*
X249296350Y24112003D02*
G01*
X249318260Y24291393D01*
X249364872Y24454852D01*
X249437784Y24605902D01*
X249538591Y24748065D01*
X249629219Y24846778D01*
X249697208Y24911776D01*
X249755535Y24960389D01*
X249814196Y24999902D01*
X249883183Y25037603D01*
X249907692Y25049798D01*
X249980605Y25083496D01*
X250055095Y25114544D01*
X250119773Y25138327D01*
X250146154Y25146402D01*
X250198668Y25156980D01*
X250270145Y25166496D01*
X250352828Y25174456D01*
X250438958Y25180366D01*
X250520778Y25183732D01*
X250590529Y25184059D01*
X250640454Y25180854D01*
X250652432Y25178652D01*
X250692307Y25168644D01*
X250692307Y24292014D01*
X250692414Y24101163D01*
X250692767Y23938950D01*
X250693416Y23803245D01*
X250694411Y23691918D01*
X250695804Y23602839D01*
X250697642Y23533878D01*
X250699978Y23482903D01*
X250702861Y23447786D01*
X250706341Y23426395D01*
X250710467Y23416601D01*
X250712927Y23415384D01*
X250750802Y23424744D01*
X250803858Y23449604D01*
X250864176Y23485133D01*
X250923842Y23526502D01*
X250974940Y23568879D01*
X250991552Y23585398D01*
X251065245Y23684408D01*
X251119347Y23799400D01*
X251153836Y23925068D01*
X251168691Y24056105D01*
X251163891Y24187207D01*
X251139415Y24313066D01*
X251095242Y24428377D01*
X251031351Y24527833D01*
X250995422Y24566714D01*
X250941944Y24618045D01*
X251065374Y24828253D01*
X251108172Y24900765D01*
X251145916Y24964013D01*
X251175697Y25013176D01*
X251194606Y25043433D01*
X251199491Y25050473D01*
X251217353Y25049259D01*
X251250440Y25029274D01*
X251293709Y24994896D01*
X251342115Y24950504D01*
X251390617Y24900478D01*
X251434171Y24849196D01*
X251439991Y24841634D01*
X251514710Y24727662D01*
X251579226Y24599673D01*
X251627102Y24471051D01*
X251638781Y24428179D01*
X251653500Y24345556D01*
X251663800Y24243179D01*
X251669403Y24131042D01*
X251670030Y24019139D01*
X251665405Y23917465D01*
X251655250Y23836024D01*
X251604110Y23640624D01*
X251529547Y23464048D01*
X251432480Y23307319D01*
X251313822Y23171455D01*
X251174492Y23057478D01*
X251015403Y22966409D01*
X250837473Y22899267D01*
X250806799Y22890674D01*
X250693156Y22868944D01*
X250561863Y22857770D01*
X250424173Y22857150D01*
X250291337Y22867080D01*
X250262292Y22872174D01*
X250262292Y23415384D01*
X250266250Y23430571D01*
X250269419Y23475356D01*
X250271777Y23548580D01*
X250273304Y23649083D01*
X250273979Y23775703D01*
X250273781Y23927281D01*
X250273253Y24026923D01*
X250272210Y24180016D01*
X250271183Y24305133D01*
X250270013Y24405067D01*
X250268539Y24482612D01*
X250266602Y24540560D01*
X250264040Y24581704D01*
X250260695Y24608838D01*
X250256404Y24624753D01*
X250251010Y24632244D01*
X250244350Y24634104D01*
X250238461Y24633487D01*
X250177763Y24615026D01*
X250106022Y24580210D01*
X250033583Y24534806D01*
X249970788Y24484581D01*
X249969909Y24483761D01*
X249890033Y24388933D01*
X249833375Y24278911D01*
X249799828Y24158572D01*
X249789287Y24032791D01*
X249801646Y23906445D01*
X249836801Y23784410D01*
X249894646Y23671562D01*
X249975074Y23572777D01*
X249989922Y23558702D01*
X250045562Y23514719D01*
X250110308Y23473889D01*
X250175423Y23440812D01*
X250232170Y23420084D01*
X250262292Y23415384D01*
X250262292Y22872174D01*
X250174606Y22887555D01*
X250161538Y22890901D01*
X249976543Y22954503D01*
X249811766Y23040769D01*
X249667934Y23149056D01*
X249545774Y23278725D01*
X249446013Y23429134D01*
X249374887Y23584615D01*
X249324245Y23751350D01*
X249298329Y23918686D01*
X249295608Y24096892D01*
X249296350Y24112003D01*
G37*
X249296350Y24112003D02*
X249318260Y24291393D01*
X249364872Y24454852D01*
X249437784Y24605902D01*
X249538591Y24748065D01*
X249629219Y24846778D01*
X249697208Y24911776D01*
X249755535Y24960389D01*
X249814196Y24999902D01*
X249883183Y25037603D01*
X249907692Y25049798D01*
X249980605Y25083496D01*
X250055095Y25114544D01*
X250119773Y25138327D01*
X250146154Y25146402D01*
X250198668Y25156980D01*
X250270145Y25166496D01*
X250352828Y25174456D01*
X250438958Y25180366D01*
X250520778Y25183732D01*
X250590529Y25184059D01*
X250640454Y25180854D01*
X250652432Y25178652D01*
X250692307Y25168644D01*
X250692307Y24292014D01*
X250692414Y24101163D01*
X250692767Y23938950D01*
X250693416Y23803245D01*
X250694411Y23691918D01*
X250695804Y23602839D01*
X250697642Y23533878D01*
X250699978Y23482903D01*
X250702861Y23447786D01*
X250706341Y23426395D01*
X250710467Y23416601D01*
X250712927Y23415384D01*
X250750802Y23424744D01*
X250803858Y23449604D01*
X250864176Y23485133D01*
X250923842Y23526502D01*
X250974940Y23568879D01*
X250991552Y23585398D01*
X251065245Y23684408D01*
X251119347Y23799400D01*
X251153836Y23925068D01*
X251168691Y24056105D01*
X251163891Y24187207D01*
X251139415Y24313066D01*
X251095242Y24428377D01*
X251031351Y24527833D01*
X250995422Y24566714D01*
X250941944Y24618045D01*
X251065374Y24828253D01*
X251108172Y24900765D01*
X251145916Y24964013D01*
X251175697Y25013176D01*
X251194606Y25043433D01*
X251199491Y25050473D01*
X251217353Y25049259D01*
X251250440Y25029274D01*
X251293709Y24994896D01*
X251342115Y24950504D01*
X251390617Y24900478D01*
X251434171Y24849196D01*
X251439991Y24841634D01*
X251514710Y24727662D01*
X251579226Y24599673D01*
X251627102Y24471051D01*
X251638781Y24428179D01*
X251653500Y24345556D01*
X251663800Y24243179D01*
X251669403Y24131042D01*
X251670030Y24019139D01*
X251665405Y23917465D01*
X251655250Y23836024D01*
X251604110Y23640624D01*
X251529547Y23464048D01*
X251432480Y23307319D01*
X251313822Y23171455D01*
X251174492Y23057478D01*
X251015403Y22966409D01*
X250837473Y22899267D01*
X250806799Y22890674D01*
X250693156Y22868944D01*
X250561863Y22857770D01*
X250424173Y22857150D01*
X250291337Y22867080D01*
X250262292Y22872174D01*
X250262292Y23415384D01*
X250266250Y23430571D01*
X250269419Y23475356D01*
X250271777Y23548580D01*
X250273304Y23649083D01*
X250273979Y23775703D01*
X250273781Y23927281D01*
X250273253Y24026923D01*
X250272210Y24180016D01*
X250271183Y24305133D01*
X250270013Y24405067D01*
X250268539Y24482612D01*
X250266602Y24540560D01*
X250264040Y24581704D01*
X250260695Y24608838D01*
X250256404Y24624753D01*
X250251010Y24632244D01*
X250244350Y24634104D01*
X250238461Y24633487D01*
X250177763Y24615026D01*
X250106022Y24580210D01*
X250033583Y24534806D01*
X249970788Y24484581D01*
X249969909Y24483761D01*
X249890033Y24388933D01*
X249833375Y24278911D01*
X249799828Y24158572D01*
X249789287Y24032791D01*
X249801646Y23906445D01*
X249836801Y23784410D01*
X249894646Y23671562D01*
X249975074Y23572777D01*
X249989922Y23558702D01*
X250045562Y23514719D01*
X250110308Y23473889D01*
X250175423Y23440812D01*
X250232170Y23420084D01*
X250262292Y23415384D01*
X250262292Y22872174D01*
X250174606Y22887555D01*
X250161538Y22890901D01*
X249976543Y22954503D01*
X249811766Y23040769D01*
X249667934Y23149056D01*
X249545774Y23278725D01*
X249446013Y23429134D01*
X249374887Y23584615D01*
X249324245Y23751350D01*
X249298329Y23918686D01*
X249295608Y24096892D01*
X249296350Y24112003D01*
G36*
X249300174Y28710412D02*
G01*
X249308706Y28820216D01*
X249324508Y28910847D01*
X249327036Y28920481D01*
X249389731Y29091692D01*
X249478519Y29249053D01*
X249590859Y29389972D01*
X249724209Y29511859D01*
X249876027Y29612124D01*
X250043772Y29688175D01*
X250097944Y29706226D01*
X250210342Y29733597D01*
X250336045Y29752709D01*
X250461745Y29762105D01*
X250574131Y29760330D01*
X250584407Y29759455D01*
X250692307Y29749427D01*
X250692307Y27982541D01*
X250726923Y27993263D01*
X250848644Y28046348D01*
X250953454Y28123550D01*
X251039588Y28222204D01*
X251105282Y28339646D01*
X251148773Y28473210D01*
X251168297Y28620232D01*
X251169231Y28661538D01*
X251159642Y28785417D01*
X251132519Y28904818D01*
X251090327Y29013145D01*
X251035528Y29103802D01*
X250982890Y29160350D01*
X250942704Y29194443D01*
X251071845Y29412606D01*
X251115806Y29485473D01*
X251155112Y29548010D01*
X251186865Y29595810D01*
X251208167Y29624463D01*
X251215315Y29630769D01*
X251232274Y29620885D01*
X251265444Y29594462D01*
X251308909Y29556338D01*
X251329558Y29537303D01*
X251448232Y29405553D01*
X251542236Y29255474D01*
X251611467Y29087267D01*
X251653328Y28915884D01*
X251665128Y28826451D01*
X251672365Y28725849D01*
X251674672Y28625489D01*
X251671681Y28536782D01*
X251666956Y28492307D01*
X251631248Y28309503D01*
X251581489Y28150063D01*
X251515335Y28008896D01*
X251430440Y27880911D01*
X251335079Y27771767D01*
X251196137Y27650648D01*
X251041380Y27555679D01*
X250870054Y27486456D01*
X250739472Y27453023D01*
X250621692Y27437350D01*
X250487929Y27432769D01*
X250349941Y27438829D01*
X250249531Y27451336D01*
X250249531Y27993274D01*
X250264722Y27994275D01*
X250267405Y28010811D01*
X250269883Y28054782D01*
X250272092Y28122854D01*
X250273963Y28211691D01*
X250275433Y28317961D01*
X250276433Y28438329D01*
X250276898Y28569461D01*
X250276923Y28608600D01*
X250276851Y28761430D01*
X250276555Y28886298D01*
X250275907Y28986009D01*
X250274786Y29063370D01*
X250273065Y29121188D01*
X250270620Y29162268D01*
X250267327Y29189418D01*
X250263061Y29205443D01*
X250257698Y29213149D01*
X250251113Y29215345D01*
X250250000Y29215372D01*
X250213477Y29207055D01*
X250160488Y29185076D01*
X250099461Y29153856D01*
X250038824Y29117818D01*
X249987005Y29081382D01*
X249973723Y29070415D01*
X249905498Y28992874D01*
X249850627Y28894153D01*
X249811763Y28781919D01*
X249791564Y28663841D01*
X249792683Y28547588D01*
X249792685Y28547571D01*
X249821966Y28401564D01*
X249874758Y28275218D01*
X249950975Y28168707D01*
X250010553Y28112216D01*
X250053241Y28082121D01*
X250106120Y28051636D01*
X250161552Y28024304D01*
X250211902Y28003669D01*
X250249531Y27993274D01*
X250249531Y27451336D01*
X250219487Y27455079D01*
X250123077Y27476634D01*
X249948889Y27542215D01*
X249790237Y27633299D01*
X249649339Y27747651D01*
X249528416Y27883034D01*
X249429687Y28037213D01*
X249355374Y28207951D01*
X249336105Y28269230D01*
X249316878Y28360846D01*
X249304392Y28471240D01*
X249298780Y28590924D01*
X249300174Y28710412D01*
G37*
X249300174Y28710412D02*
X249308706Y28820216D01*
X249324508Y28910847D01*
X249327036Y28920481D01*
X249389731Y29091692D01*
X249478519Y29249053D01*
X249590859Y29389972D01*
X249724209Y29511859D01*
X249876027Y29612124D01*
X250043772Y29688175D01*
X250097944Y29706226D01*
X250210342Y29733597D01*
X250336045Y29752709D01*
X250461745Y29762105D01*
X250574131Y29760330D01*
X250584407Y29759455D01*
X250692307Y29749427D01*
X250692307Y27982541D01*
X250726923Y27993263D01*
X250848644Y28046348D01*
X250953454Y28123550D01*
X251039588Y28222204D01*
X251105282Y28339646D01*
X251148773Y28473210D01*
X251168297Y28620232D01*
X251169231Y28661538D01*
X251159642Y28785417D01*
X251132519Y28904818D01*
X251090327Y29013145D01*
X251035528Y29103802D01*
X250982890Y29160350D01*
X250942704Y29194443D01*
X251071845Y29412606D01*
X251115806Y29485473D01*
X251155112Y29548010D01*
X251186865Y29595810D01*
X251208167Y29624463D01*
X251215315Y29630769D01*
X251232274Y29620885D01*
X251265444Y29594462D01*
X251308909Y29556338D01*
X251329558Y29537303D01*
X251448232Y29405553D01*
X251542236Y29255474D01*
X251611467Y29087267D01*
X251653328Y28915884D01*
X251665128Y28826451D01*
X251672365Y28725849D01*
X251674672Y28625489D01*
X251671681Y28536782D01*
X251666956Y28492307D01*
X251631248Y28309503D01*
X251581489Y28150063D01*
X251515335Y28008896D01*
X251430440Y27880911D01*
X251335079Y27771767D01*
X251196137Y27650648D01*
X251041380Y27555679D01*
X250870054Y27486456D01*
X250739472Y27453023D01*
X250621692Y27437350D01*
X250487929Y27432769D01*
X250349941Y27438829D01*
X250249531Y27451336D01*
X250249531Y27993274D01*
X250264722Y27994275D01*
X250267405Y28010811D01*
X250269883Y28054782D01*
X250272092Y28122854D01*
X250273963Y28211691D01*
X250275433Y28317961D01*
X250276433Y28438329D01*
X250276898Y28569461D01*
X250276923Y28608600D01*
X250276851Y28761430D01*
X250276555Y28886298D01*
X250275907Y28986009D01*
X250274786Y29063370D01*
X250273065Y29121188D01*
X250270620Y29162268D01*
X250267327Y29189418D01*
X250263061Y29205443D01*
X250257698Y29213149D01*
X250251113Y29215345D01*
X250250000Y29215372D01*
X250213477Y29207055D01*
X250160488Y29185076D01*
X250099461Y29153856D01*
X250038824Y29117818D01*
X249987005Y29081382D01*
X249973723Y29070415D01*
X249905498Y28992874D01*
X249850627Y28894153D01*
X249811763Y28781919D01*
X249791564Y28663841D01*
X249792683Y28547588D01*
X249792685Y28547571D01*
X249821966Y28401564D01*
X249874758Y28275218D01*
X249950975Y28168707D01*
X250010553Y28112216D01*
X250053241Y28082121D01*
X250106120Y28051636D01*
X250161552Y28024304D01*
X250211902Y28003669D01*
X250249531Y27993274D01*
X250249531Y27451336D01*
X250219487Y27455079D01*
X250123077Y27476634D01*
X249948889Y27542215D01*
X249790237Y27633299D01*
X249649339Y27747651D01*
X249528416Y27883034D01*
X249429687Y28037213D01*
X249355374Y28207951D01*
X249336105Y28269230D01*
X249316878Y28360846D01*
X249304392Y28471240D01*
X249298780Y28590924D01*
X249300174Y28710412D01*
G36*
X250030629Y14852467D02*
G01*
X250168550Y14893153D01*
X250296670Y14931408D01*
X250412115Y14966340D01*
X250512014Y14997059D01*
X250593495Y15022674D01*
X250653684Y15042294D01*
X250689710Y15055027D01*
X250699150Y15059824D01*
X250682975Y15065658D01*
X250640173Y15078865D01*
X250573760Y15098573D01*
X250486751Y15123908D01*
X250382162Y15153996D01*
X250263009Y15187963D01*
X250132308Y15224936D01*
X250025976Y15254825D01*
X249361538Y15441091D01*
X249357353Y15728237D01*
X249356642Y15818416D01*
X249357175Y15897009D01*
X249358826Y15959247D01*
X249361466Y16000360D01*
X249364967Y16015577D01*
X249365045Y16015585D01*
X249381279Y16011134D01*
X249424592Y15998188D01*
X249492700Y15977453D01*
X249583320Y15949634D01*
X249694170Y15915436D01*
X249822966Y15875566D01*
X249967425Y15830729D01*
X250125265Y15781632D01*
X250294203Y15728979D01*
X250471955Y15673477D01*
X250496154Y15665914D01*
X251615384Y15316042D01*
X251615384Y14820752D01*
X250942307Y14615527D01*
X250804161Y14573263D01*
X250675035Y14533483D01*
X250557917Y14497129D01*
X250455794Y14465138D01*
X250371653Y14438453D01*
X250308480Y14418012D01*
X250269262Y14404756D01*
X250257018Y14399862D01*
X250268377Y14393175D01*
X250306053Y14378689D01*
X250366892Y14357452D01*
X250447742Y14330512D01*
X250545449Y14298921D01*
X250656861Y14263726D01*
X250778826Y14225976D01*
X250787787Y14223232D01*
X250918457Y14183213D01*
X251045894Y14144139D01*
X251165622Y14107384D01*
X251273163Y14074325D01*
X251364039Y14046339D01*
X251433773Y14024802D01*
X251473077Y14012594D01*
X251615384Y13968146D01*
X251615384Y13722051D01*
X251614700Y13622510D01*
X251612488Y13550554D01*
X251608508Y13503024D01*
X251602520Y13476764D01*
X251596154Y13468959D01*
X251579812Y13463740D01*
X251536886Y13450211D01*
X251470161Y13429242D01*
X251382420Y13401704D01*
X251276447Y13368470D01*
X251155026Y13330410D01*
X251020940Y13288397D01*
X250876974Y13243300D01*
X250725910Y13195993D01*
X250570533Y13147346D01*
X250413627Y13098231D01*
X250257975Y13049519D01*
X250106360Y13002082D01*
X249961568Y12956790D01*
X249826381Y12914517D01*
X249703583Y12876132D01*
X249595958Y12842507D01*
X249506290Y12814515D01*
X249437362Y12793025D01*
X249391959Y12778910D01*
X249380769Y12775451D01*
X249371371Y12774521D01*
X249364448Y12780975D01*
X249359625Y12798734D01*
X249356529Y12831717D01*
X249354783Y12883845D01*
X249354014Y12959038D01*
X249353846Y13057128D01*
X249353846Y13347099D01*
X249673077Y13436521D01*
X249875866Y13493359D01*
X250050938Y13542513D01*
X250200217Y13584541D01*
X250325631Y13620006D01*
X250429106Y13649465D01*
X250512567Y13673479D01*
X250577941Y13692609D01*
X250627154Y13707413D01*
X250662132Y13718453D01*
X250684802Y13726287D01*
X250697088Y13731476D01*
X250700919Y13734579D01*
X250700663Y13735233D01*
X250684714Y13741080D01*
X250642224Y13754655D01*
X250576184Y13775053D01*
X250489585Y13801370D01*
X250385420Y13832699D01*
X250266680Y13868137D01*
X250136356Y13906778D01*
X250027133Y13938988D01*
X249361538Y14134807D01*
X249357456Y14394326D01*
X249353373Y14653846D01*
X250030629Y14852467D01*
G37*
X250030629Y14852467D02*
X250168550Y14893153D01*
X250296670Y14931408D01*
X250412115Y14966340D01*
X250512014Y14997059D01*
X250593495Y15022674D01*
X250653684Y15042294D01*
X250689710Y15055027D01*
X250699150Y15059824D01*
X250682975Y15065658D01*
X250640173Y15078865D01*
X250573760Y15098573D01*
X250486751Y15123908D01*
X250382162Y15153996D01*
X250263009Y15187963D01*
X250132308Y15224936D01*
X250025976Y15254825D01*
X249361538Y15441091D01*
X249357353Y15728237D01*
X249356642Y15818416D01*
X249357175Y15897009D01*
X249358826Y15959247D01*
X249361466Y16000360D01*
X249364967Y16015577D01*
X249365045Y16015585D01*
X249381279Y16011134D01*
X249424592Y15998188D01*
X249492700Y15977453D01*
X249583320Y15949634D01*
X249694170Y15915436D01*
X249822966Y15875566D01*
X249967425Y15830729D01*
X250125265Y15781632D01*
X250294203Y15728979D01*
X250471955Y15673477D01*
X250496154Y15665914D01*
X251615384Y15316042D01*
X251615384Y14820752D01*
X250942307Y14615527D01*
X250804161Y14573263D01*
X250675035Y14533483D01*
X250557917Y14497129D01*
X250455794Y14465138D01*
X250371653Y14438453D01*
X250308480Y14418012D01*
X250269262Y14404756D01*
X250257018Y14399862D01*
X250268377Y14393175D01*
X250306053Y14378689D01*
X250366892Y14357452D01*
X250447742Y14330512D01*
X250545449Y14298921D01*
X250656861Y14263726D01*
X250778826Y14225976D01*
X250787787Y14223232D01*
X250918457Y14183213D01*
X251045894Y14144139D01*
X251165622Y14107384D01*
X251273163Y14074325D01*
X251364039Y14046339D01*
X251433773Y14024802D01*
X251473077Y14012594D01*
X251615384Y13968146D01*
X251615384Y13722051D01*
X251614700Y13622510D01*
X251612488Y13550554D01*
X251608508Y13503024D01*
X251602520Y13476764D01*
X251596154Y13468959D01*
X251579812Y13463740D01*
X251536886Y13450211D01*
X251470161Y13429242D01*
X251382420Y13401704D01*
X251276447Y13368470D01*
X251155026Y13330410D01*
X251020940Y13288397D01*
X250876974Y13243300D01*
X250725910Y13195993D01*
X250570533Y13147346D01*
X250413627Y13098231D01*
X250257975Y13049519D01*
X250106360Y13002082D01*
X249961568Y12956790D01*
X249826381Y12914517D01*
X249703583Y12876132D01*
X249595958Y12842507D01*
X249506290Y12814515D01*
X249437362Y12793025D01*
X249391959Y12778910D01*
X249380769Y12775451D01*
X249371371Y12774521D01*
X249364448Y12780975D01*
X249359625Y12798734D01*
X249356529Y12831717D01*
X249354783Y12883845D01*
X249354014Y12959038D01*
X249353846Y13057128D01*
X249353846Y13347099D01*
X249673077Y13436521D01*
X249875866Y13493359D01*
X250050938Y13542513D01*
X250200217Y13584541D01*
X250325631Y13620006D01*
X250429106Y13649465D01*
X250512567Y13673479D01*
X250577941Y13692609D01*
X250627154Y13707413D01*
X250662132Y13718453D01*
X250684802Y13726287D01*
X250697088Y13731476D01*
X250700919Y13734579D01*
X250700663Y13735233D01*
X250684714Y13741080D01*
X250642224Y13754655D01*
X250576184Y13775053D01*
X250489585Y13801370D01*
X250385420Y13832699D01*
X250266680Y13868137D01*
X250136356Y13906778D01*
X250027133Y13938988D01*
X249361538Y14134807D01*
X249357456Y14394326D01*
X249353373Y14653846D01*
X250030629Y14852467D01*
G36*
X249523025Y16769230D02*
G01*
X249469394Y16843882D01*
X249383458Y16989185D01*
X249325682Y17145442D01*
X249296581Y17310095D01*
X249296669Y17480585D01*
X249315552Y17607692D01*
X249360667Y17756031D01*
X249430780Y17887677D01*
X249527981Y18006481D01*
X249537242Y18015795D01*
X249643908Y18107421D01*
X249761117Y18178854D01*
X249897134Y18234879D01*
X249938571Y18248111D01*
X249965319Y18255953D01*
X249991282Y18262550D01*
X250019339Y18268032D01*
X250052365Y18272528D01*
X250093237Y18276169D01*
X250144832Y18279083D01*
X250210027Y18281402D01*
X250291699Y18283255D01*
X250392723Y18284772D01*
X250515978Y18286082D01*
X250664339Y18287315D01*
X250834615Y18288559D01*
X251615384Y18294103D01*
X251615384Y17771136D01*
X250158364Y17761538D01*
X250053149Y17707692D01*
X249959257Y17647138D01*
X249889969Y17572197D01*
X249841364Y17477906D01*
X249821648Y17414524D01*
X249804752Y17291329D01*
X249816217Y17172282D01*
X249854033Y17061431D01*
X249916192Y16962824D01*
X250000682Y16880507D01*
X250105495Y16818527D01*
X250120814Y16812051D01*
X250141945Y16803788D01*
X250162764Y16796911D01*
X250186230Y16791273D01*
X250215300Y16786725D01*
X250252933Y16783118D01*
X250302089Y16780304D01*
X250365725Y16778134D01*
X250446801Y16776460D01*
X250548275Y16775133D01*
X250673107Y16774005D01*
X250824254Y16772927D01*
X250911538Y16772354D01*
X251615384Y16767786D01*
X251615384Y16230769D01*
X248353846Y16230769D01*
X248353846Y16769230D01*
X249523025Y16769230D01*
G37*
X249523025Y16769230D02*
X249469394Y16843882D01*
X249383458Y16989185D01*
X249325682Y17145442D01*
X249296581Y17310095D01*
X249296669Y17480585D01*
X249315552Y17607692D01*
X249360667Y17756031D01*
X249430780Y17887677D01*
X249527981Y18006481D01*
X249537242Y18015795D01*
X249643908Y18107421D01*
X249761117Y18178854D01*
X249897134Y18234879D01*
X249938571Y18248111D01*
X249965319Y18255953D01*
X249991282Y18262550D01*
X250019339Y18268032D01*
X250052365Y18272528D01*
X250093237Y18276169D01*
X250144832Y18279083D01*
X250210027Y18281402D01*
X250291699Y18283255D01*
X250392723Y18284772D01*
X250515978Y18286082D01*
X250664339Y18287315D01*
X250834615Y18288559D01*
X251615384Y18294103D01*
X251615384Y17771136D01*
X250158364Y17761538D01*
X250053149Y17707692D01*
X249959257Y17647138D01*
X249889969Y17572197D01*
X249841364Y17477906D01*
X249821648Y17414524D01*
X249804752Y17291329D01*
X249816217Y17172282D01*
X249854033Y17061431D01*
X249916192Y16962824D01*
X250000682Y16880507D01*
X250105495Y16818527D01*
X250120814Y16812051D01*
X250141945Y16803788D01*
X250162764Y16796911D01*
X250186230Y16791273D01*
X250215300Y16786725D01*
X250252933Y16783118D01*
X250302089Y16780304D01*
X250365725Y16778134D01*
X250446801Y16776460D01*
X250548275Y16775133D01*
X250673107Y16774005D01*
X250824254Y16772927D01*
X250911538Y16772354D01*
X251615384Y16767786D01*
X251615384Y16230769D01*
X248353846Y16230769D01*
X248353846Y16769230D01*
X249523025Y16769230D01*
G36*
X249353846Y22092307D02*
G01*
X249353846Y22646153D01*
X249860828Y22646153D01*
X249865029Y22373076D01*
X249869231Y22100000D01*
X250376923Y22095598D01*
X250541008Y22094667D01*
X250675833Y22095007D01*
X250782882Y22096651D01*
X250863639Y22099636D01*
X250919589Y22103998D01*
X250950412Y22109251D01*
X251018245Y22141008D01*
X251068648Y22194907D01*
X251102079Y22272028D01*
X251118991Y22373450D01*
X251119842Y22500256D01*
X251119335Y22509711D01*
X251111555Y22646153D01*
X251595974Y22646153D01*
X251605510Y22588461D01*
X251611143Y22532340D01*
X251614016Y22455143D01*
X251614335Y22365076D01*
X251612306Y22270347D01*
X251608134Y22179165D01*
X251602027Y22099737D01*
X251594189Y22040270D01*
X251591418Y22027078D01*
X251547041Y21896925D01*
X251481804Y21789111D01*
X251394455Y21702268D01*
X251283743Y21635024D01*
X251203692Y21602872D01*
X251180522Y21596466D01*
X251149942Y21591059D01*
X251108991Y21586515D01*
X251054706Y21582692D01*
X250984125Y21579453D01*
X250894286Y21576658D01*
X250782226Y21574167D01*
X250644983Y21571842D01*
X250500000Y21569809D01*
X249869231Y21561538D01*
X249860645Y21153846D01*
X249353846Y21153846D01*
X249353846Y21569230D01*
X248800000Y21569230D01*
X248800000Y22092307D01*
X249353846Y22092307D01*
G37*
X249353846Y22092307D02*
X249353846Y22646153D01*
X249860828Y22646153D01*
X249865029Y22373076D01*
X249869231Y22100000D01*
X250376923Y22095598D01*
X250541008Y22094667D01*
X250675833Y22095007D01*
X250782882Y22096651D01*
X250863639Y22099636D01*
X250919589Y22103998D01*
X250950412Y22109251D01*
X251018245Y22141008D01*
X251068648Y22194907D01*
X251102079Y22272028D01*
X251118991Y22373450D01*
X251119842Y22500256D01*
X251119335Y22509711D01*
X251111555Y22646153D01*
X251595974Y22646153D01*
X251605510Y22588461D01*
X251611143Y22532340D01*
X251614016Y22455143D01*
X251614335Y22365076D01*
X251612306Y22270347D01*
X251608134Y22179165D01*
X251602027Y22099737D01*
X251594189Y22040270D01*
X251591418Y22027078D01*
X251547041Y21896925D01*
X251481804Y21789111D01*
X251394455Y21702268D01*
X251283743Y21635024D01*
X251203692Y21602872D01*
X251180522Y21596466D01*
X251149942Y21591059D01*
X251108991Y21586515D01*
X251054706Y21582692D01*
X250984125Y21579453D01*
X250894286Y21576658D01*
X250782226Y21574167D01*
X250644983Y21571842D01*
X250500000Y21569809D01*
X249869231Y21561538D01*
X249860645Y21153846D01*
X249353846Y21153846D01*
X249353846Y21569230D01*
X248800000Y21569230D01*
X248800000Y22092307D01*
X249353846Y22092307D01*
G36*
X249611210Y27375657D02*
G01*
X249673625Y27351757D01*
X249761240Y27318226D01*
X249870516Y27276420D01*
X249997910Y27227692D01*
X250139883Y27173397D01*
X250292892Y27114889D01*
X250453398Y27053522D01*
X250617860Y26990650D01*
X250742307Y26943080D01*
X251615384Y26609365D01*
X251615384Y26305590D01*
X251614827Y26212133D01*
X251613271Y26129611D01*
X251610896Y26062802D01*
X251607879Y26016488D01*
X251604396Y25995446D01*
X251603846Y25994765D01*
X251587686Y25988094D01*
X251545556Y25971552D01*
X251480129Y25946161D01*
X251394078Y25912941D01*
X251290076Y25872913D01*
X251170795Y25827099D01*
X251038908Y25776518D01*
X250897088Y25722192D01*
X250748007Y25665142D01*
X250594339Y25606388D01*
X250438756Y25546952D01*
X250283931Y25487854D01*
X250132537Y25430115D01*
X249987246Y25374756D01*
X249850732Y25322798D01*
X249725666Y25275261D01*
X249614722Y25233167D01*
X249520572Y25197537D01*
X249445890Y25169390D01*
X249393347Y25149749D01*
X249365617Y25139634D01*
X249361923Y25138461D01*
X249359396Y25153054D01*
X249357193Y25193668D01*
X249355445Y25255555D01*
X249354286Y25333968D01*
X249353847Y25424159D01*
X249353846Y25428001D01*
X249353846Y25717540D01*
X250160689Y26008337D01*
X250310322Y26062413D01*
X250450736Y26113441D01*
X250579358Y26160467D01*
X250693617Y26202536D01*
X250790942Y26238696D01*
X250868761Y26267992D01*
X250924503Y26289470D01*
X250955595Y26302177D01*
X250961346Y26305320D01*
X250946123Y26311548D01*
X250904585Y26327218D01*
X250839370Y26351366D01*
X250753119Y26383028D01*
X250648472Y26421238D01*
X250528068Y26465031D01*
X250394548Y26513444D01*
X250250551Y26565510D01*
X250158350Y26598778D01*
X249361538Y26886051D01*
X249357364Y27180286D01*
X249353190Y27474520D01*
X249611210Y27375657D01*
G37*
X249611210Y27375657D02*
X249673625Y27351757D01*
X249761240Y27318226D01*
X249870516Y27276420D01*
X249997910Y27227692D01*
X250139883Y27173397D01*
X250292892Y27114889D01*
X250453398Y27053522D01*
X250617860Y26990650D01*
X250742307Y26943080D01*
X251615384Y26609365D01*
X251615384Y26305590D01*
X251614827Y26212133D01*
X251613271Y26129611D01*
X251610896Y26062802D01*
X251607879Y26016488D01*
X251604396Y25995446D01*
X251603846Y25994765D01*
X251587686Y25988094D01*
X251545556Y25971552D01*
X251480129Y25946161D01*
X251394078Y25912941D01*
X251290076Y25872913D01*
X251170795Y25827099D01*
X251038908Y25776518D01*
X250897088Y25722192D01*
X250748007Y25665142D01*
X250594339Y25606388D01*
X250438756Y25546952D01*
X250283931Y25487854D01*
X250132537Y25430115D01*
X249987246Y25374756D01*
X249850732Y25322798D01*
X249725666Y25275261D01*
X249614722Y25233167D01*
X249520572Y25197537D01*
X249445890Y25169390D01*
X249393347Y25149749D01*
X249365617Y25139634D01*
X249361923Y25138461D01*
X249359396Y25153054D01*
X249357193Y25193668D01*
X249355445Y25255555D01*
X249354286Y25333968D01*
X249353847Y25424159D01*
X249353846Y25428001D01*
X249353846Y25717540D01*
X250160689Y26008337D01*
X250310322Y26062413D01*
X250450736Y26113441D01*
X250579358Y26160467D01*
X250693617Y26202536D01*
X250790942Y26238696D01*
X250868761Y26267992D01*
X250924503Y26289470D01*
X250955595Y26302177D01*
X250961346Y26305320D01*
X250946123Y26311548D01*
X250904585Y26327218D01*
X250839370Y26351366D01*
X250753119Y26383028D01*
X250648472Y26421238D01*
X250528068Y26465031D01*
X250394548Y26513444D01*
X250250551Y26565510D01*
X250158350Y26598778D01*
X249361538Y26886051D01*
X249357364Y27180286D01*
X249353190Y27474520D01*
X249611210Y27375657D01*
G36*
X249888544Y31230769D02*
G01*
X249895093Y31096153D01*
X249915137Y30959207D01*
X249960371Y30839418D01*
X250029628Y30738070D01*
X250121737Y30656449D01*
X250235529Y30595840D01*
X250369837Y30557528D01*
X250387956Y30554379D01*
X250425723Y30550745D01*
X250490043Y30547402D01*
X250576698Y30544451D01*
X250681472Y30541992D01*
X250800150Y30540127D01*
X250928515Y30538956D01*
X251050000Y30538577D01*
X251615384Y30538461D01*
X251615384Y30015384D01*
X249353846Y30015384D01*
X249353846Y30538461D01*
X249461538Y30538461D01*
X249514621Y30539609D01*
X249553085Y30542631D01*
X249569146Y30546891D01*
X249569231Y30547239D01*
X249560142Y30562794D01*
X249536522Y30594357D01*
X249509319Y30628009D01*
X249421979Y30756903D01*
X249359085Y30903916D01*
X249321087Y31067903D01*
X249314379Y31122561D01*
X249303716Y31230769D01*
X249888544Y31230769D01*
G37*
X249888544Y31230769D02*
X249895093Y31096153D01*
X249915137Y30959207D01*
X249960371Y30839418D01*
X250029628Y30738070D01*
X250121737Y30656449D01*
X250235529Y30595840D01*
X250369837Y30557528D01*
X250387956Y30554379D01*
X250425723Y30550745D01*
X250490043Y30547402D01*
X250576698Y30544451D01*
X250681472Y30541992D01*
X250800150Y30540127D01*
X250928515Y30538956D01*
X251050000Y30538577D01*
X251615384Y30538461D01*
X251615384Y30015384D01*
X249353846Y30015384D01*
X249353846Y30538461D01*
X249461538Y30538461D01*
X249514621Y30539609D01*
X249553085Y30542631D01*
X249569146Y30546891D01*
X249569231Y30547239D01*
X249560142Y30562794D01*
X249536522Y30594357D01*
X249509319Y30628009D01*
X249421979Y30756903D01*
X249359085Y30903916D01*
X249321087Y31067903D01*
X249314379Y31122561D01*
X249303716Y31230769D01*
X249888544Y31230769D01*
D11*
X135890000Y10870000D02*
X135890000Y9540000D01*
X134560000Y10870000D02*
X135890000Y10870000D01*
X133290000Y10870000D02*
X133290000Y8210000D01*
X133290000Y8210000D02*
X128150000Y8210000D01*
X133290000Y10870000D02*
X128150000Y10870000D01*
X128150000Y10870000D02*
X128150000Y8210000D01*
X219710000Y10870000D02*
X219710000Y9540000D01*
X218380000Y10870000D02*
X219710000Y10870000D01*
X217110000Y10870000D02*
X217110000Y8210000D01*
X217110000Y8210000D02*
X211970000Y8210000D01*
X217110000Y10870000D02*
X211970000Y10870000D01*
X211970000Y10870000D02*
X211970000Y8210000D01*
X191770000Y10870000D02*
X191770000Y9540000D01*
X190440000Y10870000D02*
X191770000Y10870000D01*
X189170000Y10870000D02*
X189170000Y8210000D01*
X189170000Y8210000D02*
X184030000Y8210000D01*
X189170000Y10870000D02*
X184030000Y10870000D01*
X184030000Y10870000D02*
X184030000Y8210000D01*
X163830000Y10870000D02*
X163830000Y9540000D01*
X162500000Y10870000D02*
X163830000Y10870000D01*
X161230000Y10870000D02*
X161230000Y8210000D01*
X161230000Y8210000D02*
X156090000Y8210000D01*
X161230000Y10870000D02*
X156090000Y10870000D01*
X156090000Y10870000D02*
X156090000Y8210000D01*
X107950000Y10870000D02*
X107950000Y9540000D01*
X106620000Y10870000D02*
X107950000Y10870000D01*
X105350000Y10870000D02*
X105350000Y8210000D01*
X105350000Y8210000D02*
X100210000Y8210000D01*
X105350000Y10870000D02*
X100210000Y10870000D01*
X100210000Y10870000D02*
X100210000Y8210000D01*
X80010000Y10870000D02*
X80010000Y9540000D01*
X78680000Y10870000D02*
X80010000Y10870000D01*
X77410000Y10870000D02*
X77410000Y8210000D01*
X77410000Y8210000D02*
X72270000Y8210000D01*
X77410000Y10870000D02*
X72270000Y10870000D01*
X72270000Y10870000D02*
X72270000Y8210000D01*
X52070000Y10870000D02*
X52070000Y9540000D01*
X50740000Y10870000D02*
X52070000Y10870000D01*
X49470000Y10870000D02*
X49470000Y8210000D01*
X49470000Y8210000D02*
X44330000Y8210000D01*
X49470000Y10870000D02*
X44330000Y10870000D01*
X44330000Y10870000D02*
X44330000Y8210000D01*
X24130000Y10870000D02*
X24130000Y9540000D01*
X22800000Y10870000D02*
X24130000Y10870000D01*
X21530000Y10870000D02*
X21530000Y8210000D01*
X21530000Y8210000D02*
X16390000Y8210000D01*
X21530000Y10870000D02*
X16390000Y10870000D01*
X16390000Y10870000D02*
X16390000Y8210000D01*
X149800000Y59130000D02*
X151130000Y59130000D01*
X151130000Y59130000D02*
X151130000Y57800000D01*
X151130000Y56530000D02*
X151130000Y28530000D01*
X148470000Y28530000D02*
X151130000Y28530000D01*
X148470000Y56530000D02*
X148470000Y28530000D01*
X148470000Y56530000D02*
X151130000Y56530000D01*
X121860000Y59130000D02*
X123190000Y59130000D01*
X123190000Y59130000D02*
X123190000Y57800000D01*
X123190000Y56530000D02*
X123190000Y28530000D01*
X120530000Y28530000D02*
X123190000Y28530000D01*
X120530000Y56530000D02*
X120530000Y28530000D01*
X120530000Y56530000D02*
X123190000Y56530000D01*
X205680000Y59130000D02*
X207010000Y59130000D01*
X207010000Y59130000D02*
X207010000Y57800000D01*
X207010000Y56530000D02*
X207010000Y28530000D01*
X204350000Y28530000D02*
X207010000Y28530000D01*
X204350000Y56530000D02*
X204350000Y28530000D01*
X204350000Y56530000D02*
X207010000Y56530000D01*
X177740000Y59130000D02*
X179070000Y59130000D01*
X179070000Y59130000D02*
X179070000Y57800000D01*
X179070000Y56530000D02*
X179070000Y28530000D01*
X176410000Y28530000D02*
X179070000Y28530000D01*
X176410000Y56530000D02*
X176410000Y28530000D01*
X176410000Y56530000D02*
X179070000Y56530000D01*
X93920000Y59130000D02*
X95250000Y59130000D01*
X95250000Y59130000D02*
X95250000Y57800000D01*
X95250000Y56530000D02*
X95250000Y28530000D01*
X92590000Y28530000D02*
X95250000Y28530000D01*
X92590000Y56530000D02*
X92590000Y28530000D01*
X92590000Y56530000D02*
X95250000Y56530000D01*
X65980000Y59130000D02*
X67310000Y59130000D01*
X67310000Y59130000D02*
X67310000Y57800000D01*
X67310000Y56530000D02*
X67310000Y28530000D01*
X64650000Y28530000D02*
X67310000Y28530000D01*
X64650000Y56530000D02*
X64650000Y28530000D01*
X64650000Y56530000D02*
X67310000Y56530000D01*
X38040000Y59130000D02*
X39370000Y59130000D01*
X39370000Y59130000D02*
X39370000Y57800000D01*
X39370000Y56530000D02*
X39370000Y28530000D01*
X36710000Y28530000D02*
X39370000Y28530000D01*
X36710000Y56530000D02*
X36710000Y28530000D01*
X36710000Y56530000D02*
X39370000Y56530000D01*
X10100000Y59130000D02*
X11430000Y59130000D01*
X11430000Y59130000D02*
X11430000Y57800000D01*
X11430000Y56530000D02*
X11430000Y28530000D01*
X8770000Y28530000D02*
X11430000Y28530000D01*
X8770000Y56530000D02*
X8770000Y28530000D01*
X8770000Y56530000D02*
X11430000Y56530000D01*
D10*
X234942380Y67536667D02*
X235656666Y67536667D01*
X235799523Y67489048D01*
X235894761Y67393810D01*
X235942380Y67250953D01*
X235942380Y67155715D01*
X235942380Y68536667D02*
X235942380Y67965239D01*
X235942380Y68250953D02*
X234942380Y68250953D01*
X235085238Y68155715D01*
X235180476Y68060477D01*
X235228095Y67965239D01*
X114073333Y60212858D02*
X114025714Y60165239D01*
X113882857Y60117620D01*
X113787619Y60117620D01*
X113644761Y60165239D01*
X113549523Y60260477D01*
X113501904Y60355715D01*
X113454285Y60546191D01*
X113454285Y60689048D01*
X113501904Y60879524D01*
X113549523Y60974762D01*
X113644761Y61070000D01*
X113787619Y61117620D01*
X113882857Y61117620D01*
X114025714Y61070000D01*
X114073333Y61022381D01*
X114549523Y60117620D02*
X114740000Y60117620D01*
X114835238Y60165239D01*
X114882857Y60212858D01*
X114978095Y60355715D01*
X115025714Y60546191D01*
X115025714Y60927143D01*
X114978095Y61022381D01*
X114930476Y61070000D01*
X114835238Y61117620D01*
X114644761Y61117620D01*
X114549523Y61070000D01*
X114501904Y61022381D01*
X114454285Y60927143D01*
X114454285Y60689048D01*
X114501904Y60593810D01*
X114549523Y60546191D01*
X114644761Y60498572D01*
X114835238Y60498572D01*
X114930476Y60546191D01*
X114978095Y60593810D01*
X115025714Y60689048D01*
X225833333Y60212858D02*
X225785714Y60165239D01*
X225642857Y60117620D01*
X225547619Y60117620D01*
X225404761Y60165239D01*
X225309523Y60260477D01*
X225261904Y60355715D01*
X225214285Y60546191D01*
X225214285Y60689048D01*
X225261904Y60879524D01*
X225309523Y60974762D01*
X225404761Y61070000D01*
X225547619Y61117620D01*
X225642857Y61117620D01*
X225785714Y61070000D01*
X225833333Y61022381D01*
X226785714Y60117620D02*
X226214285Y60117620D01*
X226500000Y60117620D02*
X226500000Y61117620D01*
X226404761Y60974762D01*
X226309523Y60879524D01*
X226214285Y60831905D01*
X197893333Y60212858D02*
X197845714Y60165239D01*
X197702857Y60117620D01*
X197607619Y60117620D01*
X197464761Y60165239D01*
X197369523Y60260477D01*
X197321904Y60355715D01*
X197274285Y60546191D01*
X197274285Y60689048D01*
X197321904Y60879524D01*
X197369523Y60974762D01*
X197464761Y61070000D01*
X197607619Y61117620D01*
X197702857Y61117620D01*
X197845714Y61070000D01*
X197893333Y61022381D01*
X198226666Y61117620D02*
X198845714Y61117620D01*
X198512380Y60736667D01*
X198655238Y60736667D01*
X198750476Y60689048D01*
X198798095Y60641429D01*
X198845714Y60546191D01*
X198845714Y60308096D01*
X198798095Y60212858D01*
X198750476Y60165239D01*
X198655238Y60117620D01*
X198369523Y60117620D01*
X198274285Y60165239D01*
X198226666Y60212858D01*
X169953333Y60212858D02*
X169905714Y60165239D01*
X169762857Y60117620D01*
X169667619Y60117620D01*
X169524761Y60165239D01*
X169429523Y60260477D01*
X169381904Y60355715D01*
X169334285Y60546191D01*
X169334285Y60689048D01*
X169381904Y60879524D01*
X169429523Y60974762D01*
X169524761Y61070000D01*
X169667619Y61117620D01*
X169762857Y61117620D01*
X169905714Y61070000D01*
X169953333Y61022381D01*
X170858095Y61117620D02*
X170381904Y61117620D01*
X170334285Y60641429D01*
X170381904Y60689048D01*
X170477142Y60736667D01*
X170715238Y60736667D01*
X170810476Y60689048D01*
X170858095Y60641429D01*
X170905714Y60546191D01*
X170905714Y60308096D01*
X170858095Y60212858D01*
X170810476Y60165239D01*
X170715238Y60117620D01*
X170477142Y60117620D01*
X170381904Y60165239D01*
X170334285Y60212858D01*
X142013333Y60212858D02*
X141965714Y60165239D01*
X141822857Y60117620D01*
X141727619Y60117620D01*
X141584761Y60165239D01*
X141489523Y60260477D01*
X141441904Y60355715D01*
X141394285Y60546191D01*
X141394285Y60689048D01*
X141441904Y60879524D01*
X141489523Y60974762D01*
X141584761Y61070000D01*
X141727619Y61117620D01*
X141822857Y61117620D01*
X141965714Y61070000D01*
X142013333Y61022381D01*
X142346666Y61117620D02*
X143013333Y61117620D01*
X142584761Y60117620D01*
X85657142Y60212858D02*
X85609523Y60165239D01*
X85466666Y60117620D01*
X85371428Y60117620D01*
X85228571Y60165239D01*
X85133333Y60260477D01*
X85085714Y60355715D01*
X85038095Y60546191D01*
X85038095Y60689048D01*
X85085714Y60879524D01*
X85133333Y60974762D01*
X85228571Y61070000D01*
X85371428Y61117620D01*
X85466666Y61117620D01*
X85609523Y61070000D01*
X85657142Y61022381D01*
X86609523Y60117620D02*
X86038095Y60117620D01*
X86323809Y60117620D02*
X86323809Y61117620D01*
X86228571Y60974762D01*
X86133333Y60879524D01*
X86038095Y60831905D01*
X87561904Y60117620D02*
X86990476Y60117620D01*
X87276190Y60117620D02*
X87276190Y61117620D01*
X87180952Y60974762D01*
X87085714Y60879524D01*
X86990476Y60831905D01*
X57717142Y60212858D02*
X57669523Y60165239D01*
X57526666Y60117620D01*
X57431428Y60117620D01*
X57288571Y60165239D01*
X57193333Y60260477D01*
X57145714Y60355715D01*
X57098095Y60546191D01*
X57098095Y60689048D01*
X57145714Y60879524D01*
X57193333Y60974762D01*
X57288571Y61070000D01*
X57431428Y61117620D01*
X57526666Y61117620D01*
X57669523Y61070000D01*
X57717142Y61022381D01*
X58669523Y60117620D02*
X58098095Y60117620D01*
X58383809Y60117620D02*
X58383809Y61117620D01*
X58288571Y60974762D01*
X58193333Y60879524D01*
X58098095Y60831905D01*
X59002857Y61117620D02*
X59621904Y61117620D01*
X59288571Y60736667D01*
X59431428Y60736667D01*
X59526666Y60689048D01*
X59574285Y60641429D01*
X59621904Y60546191D01*
X59621904Y60308096D01*
X59574285Y60212858D01*
X59526666Y60165239D01*
X59431428Y60117620D01*
X59145714Y60117620D01*
X59050476Y60165239D01*
X59002857Y60212858D01*
X29777142Y60212858D02*
X29729523Y60165239D01*
X29586666Y60117620D01*
X29491428Y60117620D01*
X29348571Y60165239D01*
X29253333Y60260477D01*
X29205714Y60355715D01*
X29158095Y60546191D01*
X29158095Y60689048D01*
X29205714Y60879524D01*
X29253333Y60974762D01*
X29348571Y61070000D01*
X29491428Y61117620D01*
X29586666Y61117620D01*
X29729523Y61070000D01*
X29777142Y61022381D01*
X30729523Y60117620D02*
X30158095Y60117620D01*
X30443809Y60117620D02*
X30443809Y61117620D01*
X30348571Y60974762D01*
X30253333Y60879524D01*
X30158095Y60831905D01*
X31634285Y61117620D02*
X31158095Y61117620D01*
X31110476Y60641429D01*
X31158095Y60689048D01*
X31253333Y60736667D01*
X31491428Y60736667D01*
X31586666Y60689048D01*
X31634285Y60641429D01*
X31681904Y60546191D01*
X31681904Y60308096D01*
X31634285Y60212858D01*
X31586666Y60165239D01*
X31491428Y60117620D01*
X31253333Y60117620D01*
X31158095Y60165239D01*
X31110476Y60212858D01*
X137294761Y8206667D02*
X137342380Y8349524D01*
X137342380Y8587620D01*
X137294761Y8682858D01*
X137247142Y8730477D01*
X137151904Y8778096D01*
X137056666Y8778096D01*
X136961428Y8730477D01*
X136913809Y8682858D01*
X136866190Y8587620D01*
X136818571Y8397143D01*
X136770952Y8301905D01*
X136723333Y8254286D01*
X136628095Y8206667D01*
X136532857Y8206667D01*
X136437619Y8254286D01*
X136390000Y8301905D01*
X136342380Y8397143D01*
X136342380Y8635239D01*
X136390000Y8778096D01*
X136342380Y9111429D02*
X137342380Y9349524D01*
X136628095Y9540000D01*
X137342380Y9730477D01*
X136342380Y9968572D01*
X136675714Y10778096D02*
X137342380Y10778096D01*
X136294761Y10540000D02*
X137009047Y10301905D01*
X137009047Y10920953D01*
X221114761Y8206667D02*
X221162380Y8349524D01*
X221162380Y8587620D01*
X221114761Y8682858D01*
X221067142Y8730477D01*
X220971904Y8778096D01*
X220876666Y8778096D01*
X220781428Y8730477D01*
X220733809Y8682858D01*
X220686190Y8587620D01*
X220638571Y8397143D01*
X220590952Y8301905D01*
X220543333Y8254286D01*
X220448095Y8206667D01*
X220352857Y8206667D01*
X220257619Y8254286D01*
X220210000Y8301905D01*
X220162380Y8397143D01*
X220162380Y8635239D01*
X220210000Y8778096D01*
X220162380Y9111429D02*
X221162380Y9349524D01*
X220448095Y9540000D01*
X221162380Y9730477D01*
X220162380Y9968572D01*
X221162380Y10873334D02*
X221162380Y10301905D01*
X221162380Y10587620D02*
X220162380Y10587620D01*
X220305238Y10492381D01*
X220400476Y10397143D01*
X220448095Y10301905D01*
X193174761Y8206667D02*
X193222380Y8349524D01*
X193222380Y8587620D01*
X193174761Y8682858D01*
X193127142Y8730477D01*
X193031904Y8778096D01*
X192936666Y8778096D01*
X192841428Y8730477D01*
X192793809Y8682858D01*
X192746190Y8587620D01*
X192698571Y8397143D01*
X192650952Y8301905D01*
X192603333Y8254286D01*
X192508095Y8206667D01*
X192412857Y8206667D01*
X192317619Y8254286D01*
X192270000Y8301905D01*
X192222380Y8397143D01*
X192222380Y8635239D01*
X192270000Y8778096D01*
X192222380Y9111429D02*
X193222380Y9349524D01*
X192508095Y9540000D01*
X193222380Y9730477D01*
X192222380Y9968572D01*
X192317619Y10301905D02*
X192270000Y10349524D01*
X192222380Y10444762D01*
X192222380Y10682858D01*
X192270000Y10778096D01*
X192317619Y10825715D01*
X192412857Y10873334D01*
X192508095Y10873334D01*
X192650952Y10825715D01*
X193222380Y10254286D01*
X193222380Y10873334D01*
X165234761Y8206667D02*
X165282380Y8349524D01*
X165282380Y8587620D01*
X165234761Y8682858D01*
X165187142Y8730477D01*
X165091904Y8778096D01*
X164996666Y8778096D01*
X164901428Y8730477D01*
X164853809Y8682858D01*
X164806190Y8587620D01*
X164758571Y8397143D01*
X164710952Y8301905D01*
X164663333Y8254286D01*
X164568095Y8206667D01*
X164472857Y8206667D01*
X164377619Y8254286D01*
X164330000Y8301905D01*
X164282380Y8397143D01*
X164282380Y8635239D01*
X164330000Y8778096D01*
X164282380Y9111429D02*
X165282380Y9349524D01*
X164568095Y9540000D01*
X165282380Y9730477D01*
X164282380Y9968572D01*
X164282380Y10254286D02*
X164282380Y10873334D01*
X164663333Y10540000D01*
X164663333Y10682858D01*
X164710952Y10778096D01*
X164758571Y10825715D01*
X164853809Y10873334D01*
X165091904Y10873334D01*
X165187142Y10825715D01*
X165234761Y10778096D01*
X165282380Y10682858D01*
X165282380Y10397143D01*
X165234761Y10301905D01*
X165187142Y10254286D01*
X109354761Y8206667D02*
X109402380Y8349524D01*
X109402380Y8587620D01*
X109354761Y8682858D01*
X109307142Y8730477D01*
X109211904Y8778096D01*
X109116666Y8778096D01*
X109021428Y8730477D01*
X108973809Y8682858D01*
X108926190Y8587620D01*
X108878571Y8397143D01*
X108830952Y8301905D01*
X108783333Y8254286D01*
X108688095Y8206667D01*
X108592857Y8206667D01*
X108497619Y8254286D01*
X108450000Y8301905D01*
X108402380Y8397143D01*
X108402380Y8635239D01*
X108450000Y8778096D01*
X108402380Y9111429D02*
X109402380Y9349524D01*
X108688095Y9540000D01*
X109402380Y9730477D01*
X108402380Y9968572D01*
X108402380Y10825715D02*
X108402380Y10349524D01*
X108878571Y10301905D01*
X108830952Y10349524D01*
X108783333Y10444762D01*
X108783333Y10682858D01*
X108830952Y10778096D01*
X108878571Y10825715D01*
X108973809Y10873334D01*
X109211904Y10873334D01*
X109307142Y10825715D01*
X109354761Y10778096D01*
X109402380Y10682858D01*
X109402380Y10444762D01*
X109354761Y10349524D01*
X109307142Y10301905D01*
X81414761Y8206667D02*
X81462380Y8349524D01*
X81462380Y8587620D01*
X81414761Y8682858D01*
X81367142Y8730477D01*
X81271904Y8778096D01*
X81176666Y8778096D01*
X81081428Y8730477D01*
X81033809Y8682858D01*
X80986190Y8587620D01*
X80938571Y8397143D01*
X80890952Y8301905D01*
X80843333Y8254286D01*
X80748095Y8206667D01*
X80652857Y8206667D01*
X80557619Y8254286D01*
X80510000Y8301905D01*
X80462380Y8397143D01*
X80462380Y8635239D01*
X80510000Y8778096D01*
X80462380Y9111429D02*
X81462380Y9349524D01*
X80748095Y9540000D01*
X81462380Y9730477D01*
X80462380Y9968572D01*
X80462380Y10778096D02*
X80462380Y10587620D01*
X80510000Y10492381D01*
X80557619Y10444762D01*
X80700476Y10349524D01*
X80890952Y10301905D01*
X81271904Y10301905D01*
X81367142Y10349524D01*
X81414761Y10397143D01*
X81462380Y10492381D01*
X81462380Y10682858D01*
X81414761Y10778096D01*
X81367142Y10825715D01*
X81271904Y10873334D01*
X81033809Y10873334D01*
X80938571Y10825715D01*
X80890952Y10778096D01*
X80843333Y10682858D01*
X80843333Y10492381D01*
X80890952Y10397143D01*
X80938571Y10349524D01*
X81033809Y10301905D01*
X53474761Y8206667D02*
X53522380Y8349524D01*
X53522380Y8587620D01*
X53474761Y8682858D01*
X53427142Y8730477D01*
X53331904Y8778096D01*
X53236666Y8778096D01*
X53141428Y8730477D01*
X53093809Y8682858D01*
X53046190Y8587620D01*
X52998571Y8397143D01*
X52950952Y8301905D01*
X52903333Y8254286D01*
X52808095Y8206667D01*
X52712857Y8206667D01*
X52617619Y8254286D01*
X52570000Y8301905D01*
X52522380Y8397143D01*
X52522380Y8635239D01*
X52570000Y8778096D01*
X52522380Y9111429D02*
X53522380Y9349524D01*
X52808095Y9540000D01*
X53522380Y9730477D01*
X52522380Y9968572D01*
X52522380Y10254286D02*
X52522380Y10920953D01*
X53522380Y10492381D01*
X25534761Y8206667D02*
X25582380Y8349524D01*
X25582380Y8587620D01*
X25534761Y8682858D01*
X25487142Y8730477D01*
X25391904Y8778096D01*
X25296666Y8778096D01*
X25201428Y8730477D01*
X25153809Y8682858D01*
X25106190Y8587620D01*
X25058571Y8397143D01*
X25010952Y8301905D01*
X24963333Y8254286D01*
X24868095Y8206667D01*
X24772857Y8206667D01*
X24677619Y8254286D01*
X24630000Y8301905D01*
X24582380Y8397143D01*
X24582380Y8635239D01*
X24630000Y8778096D01*
X24582380Y9111429D02*
X25582380Y9349524D01*
X24868095Y9540000D01*
X25582380Y9730477D01*
X24582380Y9968572D01*
X25010952Y10492381D02*
X24963333Y10397143D01*
X24915714Y10349524D01*
X24820476Y10301905D01*
X24772857Y10301905D01*
X24677619Y10349524D01*
X24630000Y10397143D01*
X24582380Y10492381D01*
X24582380Y10682858D01*
X24630000Y10778096D01*
X24677619Y10825715D01*
X24772857Y10873334D01*
X24820476Y10873334D01*
X24915714Y10825715D01*
X24963333Y10778096D01*
X25010952Y10682858D01*
X25010952Y10492381D01*
X25058571Y10397143D01*
X25106190Y10349524D01*
X25201428Y10301905D01*
X25391904Y10301905D01*
X25487142Y10349524D01*
X25534761Y10397143D01*
X25582380Y10492381D01*
X25582380Y10682858D01*
X25534761Y10778096D01*
X25487142Y10825715D01*
X25391904Y10873334D01*
X25201428Y10873334D01*
X25106190Y10825715D01*
X25058571Y10778096D01*
X25010952Y10682858D01*
X149633333Y60212858D02*
X149585714Y60165239D01*
X149442857Y60117620D01*
X149347619Y60117620D01*
X149204761Y60165239D01*
X149109523Y60260477D01*
X149061904Y60355715D01*
X149014285Y60546191D01*
X149014285Y60689048D01*
X149061904Y60879524D01*
X149109523Y60974762D01*
X149204761Y61070000D01*
X149347619Y61117620D01*
X149442857Y61117620D01*
X149585714Y61070000D01*
X149633333Y61022381D01*
X150490476Y61117620D02*
X150300000Y61117620D01*
X150204761Y61070000D01*
X150157142Y61022381D01*
X150061904Y60879524D01*
X150014285Y60689048D01*
X150014285Y60308096D01*
X150061904Y60212858D01*
X150109523Y60165239D01*
X150204761Y60117620D01*
X150395238Y60117620D01*
X150490476Y60165239D01*
X150538095Y60212858D01*
X150585714Y60308096D01*
X150585714Y60546191D01*
X150538095Y60641429D01*
X150490476Y60689048D01*
X150395238Y60736667D01*
X150204761Y60736667D01*
X150109523Y60689048D01*
X150061904Y60641429D01*
X150014285Y60546191D01*
X121693333Y60212858D02*
X121645714Y60165239D01*
X121502857Y60117620D01*
X121407619Y60117620D01*
X121264761Y60165239D01*
X121169523Y60260477D01*
X121121904Y60355715D01*
X121074285Y60546191D01*
X121074285Y60689048D01*
X121121904Y60879524D01*
X121169523Y60974762D01*
X121264761Y61070000D01*
X121407619Y61117620D01*
X121502857Y61117620D01*
X121645714Y61070000D01*
X121693333Y61022381D01*
X122264761Y60689048D02*
X122169523Y60736667D01*
X122121904Y60784286D01*
X122074285Y60879524D01*
X122074285Y60927143D01*
X122121904Y61022381D01*
X122169523Y61070000D01*
X122264761Y61117620D01*
X122455238Y61117620D01*
X122550476Y61070000D01*
X122598095Y61022381D01*
X122645714Y60927143D01*
X122645714Y60879524D01*
X122598095Y60784286D01*
X122550476Y60736667D01*
X122455238Y60689048D01*
X122264761Y60689048D01*
X122169523Y60641429D01*
X122121904Y60593810D01*
X122074285Y60498572D01*
X122074285Y60308096D01*
X122121904Y60212858D01*
X122169523Y60165239D01*
X122264761Y60117620D01*
X122455238Y60117620D01*
X122550476Y60165239D01*
X122598095Y60212858D01*
X122645714Y60308096D01*
X122645714Y60498572D01*
X122598095Y60593810D01*
X122550476Y60641429D01*
X122455238Y60689048D01*
X205513333Y60212858D02*
X205465714Y60165239D01*
X205322857Y60117620D01*
X205227619Y60117620D01*
X205084761Y60165239D01*
X204989523Y60260477D01*
X204941904Y60355715D01*
X204894285Y60546191D01*
X204894285Y60689048D01*
X204941904Y60879524D01*
X204989523Y60974762D01*
X205084761Y61070000D01*
X205227619Y61117620D01*
X205322857Y61117620D01*
X205465714Y61070000D01*
X205513333Y61022381D01*
X205894285Y61022381D02*
X205941904Y61070000D01*
X206037142Y61117620D01*
X206275238Y61117620D01*
X206370476Y61070000D01*
X206418095Y61022381D01*
X206465714Y60927143D01*
X206465714Y60831905D01*
X206418095Y60689048D01*
X205846666Y60117620D01*
X206465714Y60117620D01*
X177573333Y60212858D02*
X177525714Y60165239D01*
X177382857Y60117620D01*
X177287619Y60117620D01*
X177144761Y60165239D01*
X177049523Y60260477D01*
X177001904Y60355715D01*
X176954285Y60546191D01*
X176954285Y60689048D01*
X177001904Y60879524D01*
X177049523Y60974762D01*
X177144761Y61070000D01*
X177287619Y61117620D01*
X177382857Y61117620D01*
X177525714Y61070000D01*
X177573333Y61022381D01*
X178430476Y60784286D02*
X178430476Y60117620D01*
X178192380Y61165239D02*
X177954285Y60450953D01*
X178573333Y60450953D01*
X93277142Y60212858D02*
X93229523Y60165239D01*
X93086666Y60117620D01*
X92991428Y60117620D01*
X92848571Y60165239D01*
X92753333Y60260477D01*
X92705714Y60355715D01*
X92658095Y60546191D01*
X92658095Y60689048D01*
X92705714Y60879524D01*
X92753333Y60974762D01*
X92848571Y61070000D01*
X92991428Y61117620D01*
X93086666Y61117620D01*
X93229523Y61070000D01*
X93277142Y61022381D01*
X94229523Y60117620D02*
X93658095Y60117620D01*
X93943809Y60117620D02*
X93943809Y61117620D01*
X93848571Y60974762D01*
X93753333Y60879524D01*
X93658095Y60831905D01*
X94848571Y61117620D02*
X94943809Y61117620D01*
X95039047Y61070000D01*
X95086666Y61022381D01*
X95134285Y60927143D01*
X95181904Y60736667D01*
X95181904Y60498572D01*
X95134285Y60308096D01*
X95086666Y60212858D01*
X95039047Y60165239D01*
X94943809Y60117620D01*
X94848571Y60117620D01*
X94753333Y60165239D01*
X94705714Y60212858D01*
X94658095Y60308096D01*
X94610476Y60498572D01*
X94610476Y60736667D01*
X94658095Y60927143D01*
X94705714Y61022381D01*
X94753333Y61070000D01*
X94848571Y61117620D01*
X65337142Y60212858D02*
X65289523Y60165239D01*
X65146666Y60117620D01*
X65051428Y60117620D01*
X64908571Y60165239D01*
X64813333Y60260477D01*
X64765714Y60355715D01*
X64718095Y60546191D01*
X64718095Y60689048D01*
X64765714Y60879524D01*
X64813333Y60974762D01*
X64908571Y61070000D01*
X65051428Y61117620D01*
X65146666Y61117620D01*
X65289523Y61070000D01*
X65337142Y61022381D01*
X66289523Y60117620D02*
X65718095Y60117620D01*
X66003809Y60117620D02*
X66003809Y61117620D01*
X65908571Y60974762D01*
X65813333Y60879524D01*
X65718095Y60831905D01*
X66670476Y61022381D02*
X66718095Y61070000D01*
X66813333Y61117620D01*
X67051428Y61117620D01*
X67146666Y61070000D01*
X67194285Y61022381D01*
X67241904Y60927143D01*
X67241904Y60831905D01*
X67194285Y60689048D01*
X66622857Y60117620D01*
X67241904Y60117620D01*
X37397142Y60212858D02*
X37349523Y60165239D01*
X37206666Y60117620D01*
X37111428Y60117620D01*
X36968571Y60165239D01*
X36873333Y60260477D01*
X36825714Y60355715D01*
X36778095Y60546191D01*
X36778095Y60689048D01*
X36825714Y60879524D01*
X36873333Y60974762D01*
X36968571Y61070000D01*
X37111428Y61117620D01*
X37206666Y61117620D01*
X37349523Y61070000D01*
X37397142Y61022381D01*
X38349523Y60117620D02*
X37778095Y60117620D01*
X38063809Y60117620D02*
X38063809Y61117620D01*
X37968571Y60974762D01*
X37873333Y60879524D01*
X37778095Y60831905D01*
X39206666Y60784286D02*
X39206666Y60117620D01*
X38968571Y61165239D02*
X38730476Y60450953D01*
X39349523Y60450953D01*
X9457142Y60212858D02*
X9409523Y60165239D01*
X9266666Y60117620D01*
X9171428Y60117620D01*
X9028571Y60165239D01*
X8933333Y60260477D01*
X8885714Y60355715D01*
X8838095Y60546191D01*
X8838095Y60689048D01*
X8885714Y60879524D01*
X8933333Y60974762D01*
X9028571Y61070000D01*
X9171428Y61117620D01*
X9266666Y61117620D01*
X9409523Y61070000D01*
X9457142Y61022381D01*
X10409523Y60117620D02*
X9838095Y60117620D01*
X10123809Y60117620D02*
X10123809Y61117620D01*
X10028571Y60974762D01*
X9933333Y60879524D01*
X9838095Y60831905D01*
X11266666Y61117620D02*
X11076190Y61117620D01*
X10980952Y61070000D01*
X10933333Y61022381D01*
X10838095Y60879524D01*
X10790476Y60689048D01*
X10790476Y60308096D01*
X10838095Y60212858D01*
X10885714Y60165239D01*
X10980952Y60117620D01*
X11171428Y60117620D01*
X11266666Y60165239D01*
X11314285Y60212858D01*
X11361904Y60308096D01*
X11361904Y60546191D01*
X11314285Y60641429D01*
X11266666Y60689048D01*
X11171428Y60736667D01*
X10980952Y60736667D01*
X10885714Y60689048D01*
X10838095Y60641429D01*
X10790476Y60546191D01*
%LPC*%
D13*
X241240000Y59420000D03*
G36*
G01*
X240190000Y67020000D02*
X242290000Y67020000D01*
G75*
G02*
X243090000Y66220000I0J-800000D01*
G01*
X243090000Y64620000D01*
G75*
G02*
X242290000Y63820000I-800000J0D01*
G01*
X240190000Y63820000D01*
G75*
G02*
X239390000Y64620000I0J800000D01*
G01*
X239390000Y66220000D01*
G75*
G02*
X240190000Y67020000I800000J0D01*
G01*
G37*
G36*
G01*
X235615000Y64270000D02*
X237465000Y64270000D01*
G75*
G02*
X238390000Y63345000I0J-925000D01*
G01*
X238390000Y61495000D01*
G75*
G02*
X237465000Y60570000I-925000J0D01*
G01*
X235615000Y60570000D01*
G75*
G02*
X234690000Y61495000I0J925000D01*
G01*
X234690000Y63345000D01*
G75*
G02*
X235615000Y64270000I925000J0D01*
G01*
G37*
D14*
X114240000Y19700000D03*
X114240000Y22240000D03*
X114240000Y24780000D03*
X114240000Y27320000D03*
X114240000Y29860000D03*
X114240000Y32400000D03*
X114240000Y34940000D03*
X114240000Y37480000D03*
X114240000Y40020000D03*
X114240000Y42560000D03*
X114240000Y45100000D03*
X114240000Y47640000D03*
X114240000Y50180000D03*
X114240000Y52720000D03*
X114240000Y55260000D03*
X114240000Y57800000D03*
X226000000Y19700000D03*
X226000000Y22240000D03*
X226000000Y24780000D03*
X226000000Y27320000D03*
X226000000Y29860000D03*
X226000000Y32400000D03*
X226000000Y34940000D03*
X226000000Y37480000D03*
X226000000Y40020000D03*
X226000000Y42560000D03*
X226000000Y45100000D03*
X226000000Y47640000D03*
X226000000Y50180000D03*
X226000000Y52720000D03*
X226000000Y55260000D03*
X226000000Y57800000D03*
X198060000Y19700000D03*
X198060000Y22240000D03*
X198060000Y24780000D03*
X198060000Y27320000D03*
X198060000Y29860000D03*
X198060000Y32400000D03*
X198060000Y34940000D03*
X198060000Y37480000D03*
X198060000Y40020000D03*
X198060000Y42560000D03*
X198060000Y45100000D03*
X198060000Y47640000D03*
X198060000Y50180000D03*
X198060000Y52720000D03*
X198060000Y55260000D03*
X198060000Y57800000D03*
X170120000Y19700000D03*
X170120000Y22240000D03*
X170120000Y24780000D03*
X170120000Y27320000D03*
X170120000Y29860000D03*
X170120000Y32400000D03*
X170120000Y34940000D03*
X170120000Y37480000D03*
X170120000Y40020000D03*
X170120000Y42560000D03*
X170120000Y45100000D03*
X170120000Y47640000D03*
X170120000Y50180000D03*
X170120000Y52720000D03*
X170120000Y55260000D03*
X170120000Y57800000D03*
X142180000Y19700000D03*
X142180000Y22240000D03*
X142180000Y24780000D03*
X142180000Y27320000D03*
X142180000Y29860000D03*
X142180000Y32400000D03*
X142180000Y34940000D03*
X142180000Y37480000D03*
X142180000Y40020000D03*
X142180000Y42560000D03*
X142180000Y45100000D03*
X142180000Y47640000D03*
X142180000Y50180000D03*
X142180000Y52720000D03*
X142180000Y55260000D03*
X142180000Y57800000D03*
X86300000Y19700000D03*
X86300000Y22240000D03*
X86300000Y24780000D03*
X86300000Y27320000D03*
X86300000Y29860000D03*
X86300000Y32400000D03*
X86300000Y34940000D03*
X86300000Y37480000D03*
X86300000Y40020000D03*
X86300000Y42560000D03*
X86300000Y45100000D03*
X86300000Y47640000D03*
X86300000Y50180000D03*
X86300000Y52720000D03*
X86300000Y55260000D03*
X86300000Y57800000D03*
X58360000Y19700000D03*
X58360000Y22240000D03*
X58360000Y24780000D03*
X58360000Y27320000D03*
X58360000Y29860000D03*
X58360000Y32400000D03*
X58360000Y34940000D03*
X58360000Y37480000D03*
X58360000Y40020000D03*
X58360000Y42560000D03*
X58360000Y45100000D03*
X58360000Y47640000D03*
X58360000Y50180000D03*
X58360000Y52720000D03*
X58360000Y55260000D03*
X58360000Y57800000D03*
X30420000Y19700000D03*
X30420000Y22240000D03*
X30420000Y24780000D03*
X30420000Y27320000D03*
X30420000Y29860000D03*
X30420000Y32400000D03*
X30420000Y34940000D03*
X30420000Y37480000D03*
X30420000Y40020000D03*
X30420000Y42560000D03*
X30420000Y45100000D03*
X30420000Y47640000D03*
X30420000Y50180000D03*
X30420000Y52720000D03*
X30420000Y55260000D03*
X30420000Y57800000D03*
X129480000Y9540000D03*
X132020000Y9540000D03*
X134560000Y9540000D03*
X213300000Y9540000D03*
X215840000Y9540000D03*
X218380000Y9540000D03*
X185360000Y9540000D03*
X187900000Y9540000D03*
X190440000Y9540000D03*
X157420000Y9540000D03*
X159960000Y9540000D03*
X162500000Y9540000D03*
X101540000Y9540000D03*
X104080000Y9540000D03*
X106620000Y9540000D03*
X73600000Y9540000D03*
X76140000Y9540000D03*
X78680000Y9540000D03*
X45660000Y9540000D03*
X48200000Y9540000D03*
X50740000Y9540000D03*
X17720000Y9540000D03*
X20260000Y9540000D03*
X22800000Y9540000D03*
X149800000Y29860000D03*
X149800000Y32400000D03*
X149800000Y34940000D03*
X149800000Y37480000D03*
X149800000Y40020000D03*
X149800000Y42560000D03*
X149800000Y45100000D03*
X149800000Y47640000D03*
X149800000Y50180000D03*
X149800000Y52720000D03*
X149800000Y55260000D03*
X149800000Y57800000D03*
X121860000Y29860000D03*
X121860000Y32400000D03*
X121860000Y34940000D03*
X121860000Y37480000D03*
X121860000Y40020000D03*
X121860000Y42560000D03*
X121860000Y45100000D03*
X121860000Y47640000D03*
X121860000Y50180000D03*
X121860000Y52720000D03*
X121860000Y55260000D03*
X121860000Y57800000D03*
X205680000Y29860000D03*
X205680000Y32400000D03*
X205680000Y34940000D03*
X205680000Y37480000D03*
X205680000Y40020000D03*
X205680000Y42560000D03*
X205680000Y45100000D03*
X205680000Y47640000D03*
X205680000Y50180000D03*
X205680000Y52720000D03*
X205680000Y55260000D03*
X205680000Y57800000D03*
X177740000Y29860000D03*
X177740000Y32400000D03*
X177740000Y34940000D03*
X177740000Y37480000D03*
X177740000Y40020000D03*
X177740000Y42560000D03*
X177740000Y45100000D03*
X177740000Y47640000D03*
X177740000Y50180000D03*
X177740000Y52720000D03*
X177740000Y55260000D03*
X177740000Y57800000D03*
X93920000Y29860000D03*
X93920000Y32400000D03*
X93920000Y34940000D03*
X93920000Y37480000D03*
X93920000Y40020000D03*
X93920000Y42560000D03*
X93920000Y45100000D03*
X93920000Y47640000D03*
X93920000Y50180000D03*
X93920000Y52720000D03*
X93920000Y55260000D03*
X93920000Y57800000D03*
X65980000Y29860000D03*
X65980000Y32400000D03*
X65980000Y34940000D03*
X65980000Y37480000D03*
X65980000Y40020000D03*
X65980000Y42560000D03*
X65980000Y45100000D03*
X65980000Y47640000D03*
X65980000Y50180000D03*
X65980000Y52720000D03*
X65980000Y55260000D03*
X65980000Y57800000D03*
X38040000Y29860000D03*
X38040000Y32400000D03*
X38040000Y34940000D03*
X38040000Y37480000D03*
X38040000Y40020000D03*
X38040000Y42560000D03*
X38040000Y45100000D03*
X38040000Y47640000D03*
X38040000Y50180000D03*
X38040000Y52720000D03*
X38040000Y55260000D03*
X38040000Y57800000D03*
X10100000Y29860000D03*
X10100000Y32400000D03*
X10100000Y34940000D03*
X10100000Y37480000D03*
X10100000Y40020000D03*
X10100000Y42560000D03*
X10100000Y45100000D03*
X10100000Y47640000D03*
X10100000Y50180000D03*
X10100000Y52720000D03*
X10100000Y55260000D03*
X10100000Y57800000D03*
D15*
X4000000Y70000000D03*
X4000000Y4000000D03*
X252000000Y4000000D03*
X252000000Y70000000D03*
M02*
